G04 EasyPC Gerber Version 21.0.3 Build 4286 *
G04 #@! TF.Part,Single*
G04 #@! TF.FileFunction,Legend,Bot *
G04 #@! TF.FilePolarity,Positive *
%FSLAX35Y35*%
%MOIN*%
%ADD13C,0.00300*%
%ADD11C,0.00500*%
%ADD18C,0.00600*%
%ADD15C,0.00800*%
X0Y0D02*
D02*
D11*
X51593Y67456D02*
X51946Y67102D01*
Y65688*
X53360Y69224D02*
Y64274D01*
X54775Y70638D02*
Y62860D01*
X56189Y72052D02*
Y61446D01*
X57603Y70638D02*
Y60031D01*
X58805Y13574D02*
X13974Y58405D01*
X54987Y99417*
X99817Y54587*
X58805Y13574*
X59017Y69224D02*
Y58617D01*
X60431Y67810D02*
Y57203D01*
X61846Y66395D02*
Y55789D01*
X63260Y64981D02*
Y54375D01*
X64674Y63567D02*
Y52960D01*
X66088Y62153D02*
Y51546D01*
X67502Y60739D02*
Y50132D01*
X68917Y59324D02*
Y48718D01*
X70331Y57910D02*
Y47304D01*
X71745Y56496D02*
Y45889D01*
X73159Y55082D02*
Y44475D01*
X74574Y53667D02*
Y43061D01*
X75705Y41364D02*
X50673Y66395D01*
X56259Y71981*
X81291Y46950*
X75705Y41364*
X80230Y45889D02*
Y48011D01*
X78816Y49425*
Y44475*
X77402Y43061*
Y50839*
X75988Y52253*
Y41647*
X84725Y161959D02*
X76063D01*
Y168259*
X84725*
Y161959*
X90457Y25200D02*
X74900Y9643D01*
X69243Y15300*
X84800Y30857*
X90457Y25200*
X105125Y161959D02*
X96463D01*
Y168259*
X105125*
Y161959*
X115050Y149150D02*
X111850D01*
Y142050*
X115050*
Y149150*
X118850D02*
X115650D01*
Y142050*
X118850*
Y149150*
X122550Y133850D02*
Y137050D01*
X115450*
Y133850*
X122550*
Y137650D02*
Y140850D01*
X115450*
Y137650*
X122550*
X122650Y149150D02*
X119450D01*
Y142050*
X122650*
Y149150*
X122925Y161959D02*
X114263D01*
Y168259*
X122925*
Y161959*
X126450Y149150D02*
X123250D01*
Y142050*
X126450*
Y149150*
X133650Y101350D02*
X130450D01*
Y94250*
X133650*
Y101350*
X134350Y138250D02*
Y141450D01*
X127250*
Y138250*
X134350*
Y142050D02*
Y145250D01*
X127250*
Y142050*
X134350*
X137350Y1150D02*
X122350Y16150D01*
Y13150*
X134350Y1150*
X131350*
X122350Y10150*
Y7150*
X128350Y1150*
X125350*
X122350Y4150*
X140350Y1150D02*
X123350Y18150D01*
X140525Y161959D02*
X131863D01*
Y168259*
X140525*
Y161959*
X143350Y1150D02*
X126350Y18150D01*
X145350Y115050D02*
Y111850D01*
X152450*
Y115050*
X145350*
X146350Y1150D02*
X129350Y18150D01*
X149350Y1150D02*
X132350Y18150D01*
X152350Y1150D02*
X135350Y18150D01*
X155350Y1150D02*
X138350Y18150D01*
X155350Y101250D02*
X158550D01*
Y108350*
X155350*
Y101250*
X158350Y1150D02*
X141350Y18150D01*
X159325Y161959D02*
X150663D01*
Y168259*
X159325*
Y161959*
X160550Y111750D02*
Y114950D01*
X153450*
Y111750*
X160550*
X161350Y1150D02*
X144350Y18150D01*
X164350Y1150D02*
X147350Y18150D01*
X167350Y1150D02*
X150350Y18150D01*
X168900Y116600D02*
Y121900D01*
X156600*
Y116600*
X168900*
X169750Y83650D02*
X166550D01*
Y76550*
X169750*
Y83650*
X170350Y1150D02*
X153350Y18150D01*
X171350Y1150D02*
X122350D01*
Y18150*
X171350*
Y1150*
X110350*
Y61150*
X171350*
Y1150*
Y3150D02*
X156350Y18150D01*
X171350Y6150D02*
X159350Y18150D01*
X171350Y9150D02*
X162350Y18150D01*
X171350Y12150D02*
X165350Y18150D01*
X171350Y15150D02*
X168350Y18150D01*
X171950Y242050D02*
X71750D01*
X950Y171250*
Y71350*
X71650Y650*
X171750*
X242550Y71450*
Y171350*
X238550Y175350*
X171950Y242050*
X176350Y120450D02*
Y152950D01*
X205350*
Y120450*
X176350*
X191350Y87350D02*
Y90550D01*
X184250*
Y87350*
X191350*
X191450Y93150D02*
Y96350D01*
X184350*
Y93150*
X191450*
X202800Y158700D02*
X208100D01*
Y171000*
X202800*
Y158700*
X202950Y167350D02*
X205450Y162350D01*
X207950Y167350*
X212050Y126750D02*
X208850D01*
Y119650*
X212050*
Y126750*
X213550Y115350D02*
Y112150D01*
X220650*
Y115350*
X213550*
Y120650D02*
Y117450D01*
X220650*
Y120650*
X213550*
X218037Y131450D02*
Y133950D01*
X216787Y132700D02*
X219287D01*
X218037Y139450D02*
Y141950D01*
X218750Y104950D02*
X215550D01*
Y97850*
X218750*
Y104950*
X240950Y139250D02*
Y101250D01*
X230550*
Y139250*
X240950*
X246950Y122850D02*
Y117650D01*
X240950*
Y122850*
X246950*
D02*
D13*
X80150Y188113D02*
Y190363D01*
X79025*
X78650Y190175*
X78463Y189987*
X78275Y189613*
Y188863*
X78463Y188487*
X78650Y188300*
X79025Y188113*
X80150*
X75650D02*
X77150D01*
X75837Y189425*
X75650Y189800*
X75837Y190175*
X76213Y190363*
X76775*
X77150Y190175*
X82075Y170687D02*
X82263Y170500D01*
X82637Y170313*
X83200*
X83575Y170500*
X83763Y170687*
X83950Y171063*
Y171813*
X83763Y172187*
X83575Y172375*
X83200Y172563*
X82637*
X82263Y172375*
X82075Y172187*
X80763Y170500D02*
X80387Y170313D01*
X80013*
X79637Y170500*
X79450Y170875*
X79637Y171250*
X80013Y171437*
X80387*
X80013D02*
X79637Y171625D01*
X79450Y172000*
X79637Y172375*
X80013Y172563*
X80387*
X80763Y172375*
X84761Y15387D02*
X85026D01*
X85424Y15520*
X85822Y15917*
X85954Y16315*
X85955Y16580*
X85822Y16978*
X85291Y17509*
X84894Y17641*
X84628*
X84231Y17509*
X83833Y17111*
X83700Y16713*
Y16448*
X83568Y13664D02*
X81977Y15255D01*
X83700Y14857*
X82640Y13796*
X99250Y188313D02*
Y190563D01*
X98125*
X97750Y190375*
X97563Y190187*
X97375Y189813*
Y189063*
X97563Y188687*
X97750Y188500*
X98125Y188313*
X99250*
X96063Y188500D02*
X95687Y188313D01*
X95313*
X94937Y188500*
X94750Y188875*
X94937Y189250*
X95313Y189437*
X95687*
X95313D02*
X94937Y189625D01*
X94750Y190000*
X94937Y190375*
X95313Y190563*
X95687*
X96063Y190375*
X102275Y170387D02*
X102463Y170200D01*
X102837Y170013*
X103400*
X103775Y170200*
X103963Y170387*
X104150Y170763*
Y171513*
X103963Y171887*
X103775Y172075*
X103400Y172263*
X102837*
X102463Y172075*
X102275Y171887*
X100587Y170013D02*
X100213Y170200D01*
X99837Y170575*
X99650Y171137*
Y171700*
X99837Y172075*
X100213Y172263*
X100587*
X100963Y172075*
X101150Y171700*
X100963Y171325*
X100587Y171137*
X100213*
X99837Y171325*
X99650Y171700*
X112475Y134887D02*
X112663Y134700D01*
X113037Y134513*
X113600*
X113975Y134700*
X114163Y134887*
X114350Y135263*
Y136013*
X114163Y136387*
X113975Y136575*
X113600Y136763*
X113037*
X112663Y136575*
X112475Y136387*
X109850Y134513D02*
X111350D01*
X110037Y135825*
X109850Y136200*
X110037Y136575*
X110413Y136763*
X110975*
X111350Y136575*
X107975Y134513D02*
X107225D01*
X107600D02*
Y136763D01*
X107975Y136387*
X112675Y138487D02*
X112863Y138300D01*
X113237Y138113*
X113800*
X114175Y138300*
X114363Y138487*
X114550Y138863*
Y139613*
X114363Y139987*
X114175Y140175*
X113800Y140363*
X113237*
X112863Y140175*
X112675Y139987*
X111175Y138113D02*
X110425D01*
X110800D02*
Y140363D01*
X111175Y139987*
X107987Y139237D02*
X107613D01*
X107237Y139425*
X107050Y139800*
X107237Y140175*
X107613Y140363*
X107987*
X108363Y140175*
X108550Y139800*
X108363Y139425*
X107987Y139237*
X108363Y139050*
X108550Y138675*
X108363Y138300*
X107987Y138113*
X107613*
X107237Y138300*
X107050Y138675*
X107237Y139050*
X107613Y139237*
X113913Y155875D02*
X114100Y156063D01*
X114287Y156437*
Y157000*
X114100Y157375*
X113913Y157563*
X113537Y157750*
X112787*
X112413Y157563*
X112225Y157375*
X112037Y157000*
Y156437*
X112225Y156063*
X112413Y155875*
X114287Y154375D02*
Y153625D01*
Y154000D02*
X112037D01*
X112413Y154375*
X114100Y151563D02*
X114287Y151187D01*
Y150813*
X114100Y150437*
X113725Y150250*
X113350Y150437*
X113163Y150813*
Y151187*
Y150813D02*
X112975Y150437D01*
X112600Y150250*
X112225Y150437*
X112037Y150813*
Y151187*
X112225Y151563*
X117813Y155775D02*
X118000Y155963D01*
X118187Y156337*
Y156900*
X118000Y157275*
X117813Y157463*
X117437Y157650*
X116687*
X116313Y157463*
X116125Y157275*
X115937Y156900*
Y156337*
X116125Y155963*
X116313Y155775*
X118187Y154275D02*
Y153525D01*
Y153900D02*
X115937D01*
X116313Y154275*
X118187Y151650D02*
X115937Y150150D01*
Y151650*
X119550Y188713D02*
Y190963D01*
X118425*
X118050Y190775*
X117863Y190587*
X117675Y190213*
Y189463*
X117863Y189087*
X118050Y188900*
X118425Y188713*
X119550*
X115613D02*
Y190963D01*
X116550Y189463*
X115050*
X120175Y170687D02*
X120363Y170500D01*
X120737Y170313*
X121300*
X121675Y170500*
X121863Y170687*
X122050Y171063*
Y171813*
X121863Y172187*
X121675Y172375*
X121300Y172563*
X120737*
X120363Y172375*
X120175Y172187*
X118675Y170313D02*
X117925D01*
X118300D02*
Y172563D01*
X118675Y172187*
X115675Y170313D02*
X114925D01*
X115300D02*
Y172563D01*
X115675Y172187*
X122113Y155775D02*
X122300Y155963D01*
X122487Y156337*
Y156900*
X122300Y157275*
X122113Y157463*
X121737Y157650*
X120987*
X120613Y157463*
X120425Y157275*
X120237Y156900*
Y156337*
X120425Y155963*
X120613Y155775*
X122487Y153150D02*
Y154650D01*
X121175Y153337*
X120800Y153150*
X120425Y153337*
X120237Y153713*
Y154275*
X120425Y154650*
X122487Y150150D02*
Y151650D01*
X121175Y150337*
X120800Y150150*
X120425Y150337*
X120237Y150713*
Y151275*
X120425Y151650*
X124713Y77375D02*
X124900Y77563D01*
X125087Y77937*
Y78500*
X124900Y78875*
X124713Y79063*
X124337Y79250*
X123587*
X123213Y79063*
X123025Y78875*
X122837Y78500*
Y77937*
X123025Y77563*
X123213Y77375*
X125087Y74750D02*
Y76250D01*
X123775Y74937*
X123400Y74750*
X123025Y74937*
X122837Y75313*
Y75875*
X123025Y76250*
X124900Y73250D02*
X125087Y72875D01*
Y72313*
X124900Y71937*
X124525Y71750*
X124337*
X123963Y71937*
X123775Y72313*
Y73250*
X122837*
Y71750*
X125813Y155775D02*
X126000Y155963D01*
X126187Y156337*
Y156900*
X126000Y157275*
X125813Y157463*
X125437Y157650*
X124687*
X124313Y157463*
X124125Y157275*
X123937Y156900*
Y156337*
X124125Y155963*
X124313Y155775*
X126187Y153150D02*
Y154650D01*
X124875Y153337*
X124500Y153150*
X124125Y153337*
X123937Y153713*
Y154275*
X124125Y154650*
X126187Y150713D02*
X123937D01*
X125437Y151650*
Y150150*
X129413Y99275D02*
X129600Y99463D01*
X129787Y99837*
Y100400*
X129600Y100775*
X129413Y100963*
X129037Y101150*
X128287*
X127913Y100963*
X127725Y100775*
X127537Y100400*
Y99837*
X127725Y99463*
X127913Y99275*
X129600Y97963D02*
X129787Y97587D01*
Y97213*
X129600Y96837*
X129225Y96650*
X128850Y96837*
X128663Y97213*
Y97587*
Y97213D02*
X128475Y96837D01*
X128100Y96650*
X127725Y96837*
X127537Y97213*
Y97587*
X127725Y97963*
X129787Y93650D02*
Y95150D01*
X128475Y93837*
X128100Y93650*
X127725Y93837*
X127537Y94213*
Y94775*
X127725Y95150*
X128475Y113687D02*
X128663Y113500D01*
X129037Y113313*
X129600*
X129975Y113500*
X130163Y113687*
X130350Y114063*
Y114813*
X130163Y115187*
X129975Y115375*
X129600Y115563*
X129037*
X128663Y115375*
X128475Y115187*
X127163Y113500D02*
X126787Y113313D01*
X126413*
X126037Y113500*
X125850Y113875*
X126037Y114250*
X126413Y114437*
X126787*
X126413D02*
X126037Y114625D01*
X125850Y115000*
X126037Y115375*
X126413Y115563*
X126787*
X127163Y115375*
X123975Y113313D02*
X123225D01*
X123600D02*
Y115563D01*
X123975Y115187*
X129137Y87850D02*
X130825D01*
X131200Y87663*
X131387Y87287*
Y86537*
X131200Y86163*
X130825Y85975*
X129137*
X131200Y84663D02*
X131387Y84287D01*
Y83913*
X131200Y83537*
X130825Y83350*
X130450Y83537*
X130263Y83913*
Y84287*
Y83913D02*
X130075Y83537D01*
X129700Y83350*
X129325Y83537*
X129137Y83913*
Y84287*
X129325Y84663*
X139650Y189213D02*
Y191463D01*
X138525*
X138150Y191275*
X137963Y191087*
X137775Y190713*
Y189963*
X137963Y189587*
X138150Y189400*
X138525Y189213*
X139650*
X136650Y189400D02*
X136275Y189213D01*
X135713*
X135337Y189400*
X135150Y189775*
Y189963*
X135337Y190337*
X135713Y190525*
X136650*
Y191463*
X135150*
X137875Y170687D02*
X138063Y170500D01*
X138437Y170313*
X139000*
X139375Y170500*
X139563Y170687*
X139750Y171063*
Y171813*
X139563Y172187*
X139375Y172375*
X139000Y172563*
X138437*
X138063Y172375*
X137875Y172187*
X135250Y170313D02*
X136750D01*
X135437Y171625*
X135250Y172000*
X135437Y172375*
X135813Y172563*
X136375*
X136750Y172375*
X133187Y171437D02*
X132813D01*
X132437Y171625*
X132250Y172000*
X132437Y172375*
X132813Y172563*
X133187*
X133563Y172375*
X133750Y172000*
X133563Y171625*
X133187Y171437*
X133563Y171250*
X133750Y170875*
X133563Y170500*
X133187Y170313*
X132813*
X132437Y170500*
X132250Y170875*
X132437Y171250*
X132813Y171437*
X141675Y142987D02*
X141863Y142800D01*
X142237Y142613*
X142800*
X143175Y142800*
X143363Y142987*
X143550Y143363*
Y144113*
X143363Y144487*
X143175Y144675*
X142800Y144863*
X142237*
X141863Y144675*
X141675Y144487*
X139050Y142613D02*
X140550D01*
X139237Y143925*
X139050Y144300*
X139237Y144675*
X139613Y144863*
X140175*
X140550Y144675*
X136987Y142613D02*
X136613Y142800D01*
X136237Y143175*
X136050Y143737*
Y144300*
X136237Y144675*
X136613Y144863*
X136987*
X137363Y144675*
X137550Y144300*
X137363Y143925*
X136987Y143737*
X136613*
X136237Y143925*
X136050Y144300*
X141775Y139087D02*
X141963Y138900D01*
X142337Y138713*
X142900*
X143275Y138900*
X143463Y139087*
X143650Y139463*
Y140213*
X143463Y140587*
X143275Y140775*
X142900Y140963*
X142337*
X141963Y140775*
X141775Y140587*
X140463Y138900D02*
X140087Y138713D01*
X139713*
X139337Y138900*
X139150Y139275*
X139337Y139650*
X139713Y139837*
X140087*
X139713D02*
X139337Y140025D01*
X139150Y140400*
X139337Y140775*
X139713Y140963*
X140087*
X140463Y140775*
X137463Y138900D02*
X137087Y138713D01*
X136713*
X136337Y138900*
X136150Y139275*
Y140400*
X136337Y140775*
X136713Y140963*
X137087*
X137463Y140775*
X137650Y140400*
Y139275*
X137463Y138900*
X136337Y140775*
X143775Y119787D02*
X143963Y119600D01*
X144337Y119413*
X144900*
X145275Y119600*
X145463Y119787*
X145650Y120163*
Y120913*
X145463Y121287*
X145275Y121475*
X144900Y121663*
X144337*
X143963Y121475*
X143775Y121287*
X142463Y119600D02*
X142087Y119413D01*
X141713*
X141337Y119600*
X141150Y119975*
X141337Y120350*
X141713Y120537*
X142087*
X141713D02*
X141337Y120725D01*
X141150Y121100*
X141337Y121475*
X141713Y121663*
X142087*
X142463Y121475*
X138713Y119413D02*
Y121663D01*
X139650Y120163*
X138150*
X153175Y91987D02*
X153363Y91800D01*
X153737Y91613*
X154300*
X154675Y91800*
X154863Y91987*
X155050Y92363*
Y93113*
X154863Y93487*
X154675Y93675*
X154300Y93863*
X153737*
X153363Y93675*
X153175Y93487*
X151863Y91800D02*
X151487Y91613D01*
X151113*
X150737Y91800*
X150550Y92175*
X150737Y92550*
X151113Y92737*
X151487*
X151113D02*
X150737Y92925D01*
X150550Y93300*
X150737Y93675*
X151113Y93863*
X151487*
X151863Y93675*
X148863Y91800D02*
X148487Y91613D01*
X148113*
X147737Y91800*
X147550Y92175*
X147737Y92550*
X148113Y92737*
X148487*
X148113D02*
X147737Y92925D01*
X147550Y93300*
X147737Y93675*
X148113Y93863*
X148487*
X148863Y93675*
X153375Y119887D02*
X153563Y119700D01*
X153937Y119513*
X154500*
X154875Y119700*
X155063Y119887*
X155250Y120263*
Y121013*
X155063Y121387*
X154875Y121575*
X154500Y121763*
X153937*
X153563Y121575*
X153375Y121387*
X152063Y119700D02*
X151687Y119513D01*
X151313*
X150937Y119700*
X150750Y120075*
X150937Y120450*
X151313Y120637*
X151687*
X151313D02*
X150937Y120825D01*
X150750Y121200*
X150937Y121575*
X151313Y121763*
X151687*
X152063Y121575*
X149250Y120075D02*
X149063Y120450D01*
X148687Y120637*
X148313*
X147937Y120450*
X147750Y120075*
X147937Y119700*
X148313Y119513*
X148687*
X149063Y119700*
X149250Y120075*
Y120637*
X149063Y121200*
X148687Y121575*
X148313Y121763*
X157475Y170787D02*
X157663Y170600D01*
X158037Y170413*
X158600*
X158975Y170600*
X159163Y170787*
X159350Y171163*
Y171913*
X159163Y172287*
X158975Y172475*
X158600Y172663*
X158037*
X157663Y172475*
X157475Y172287*
X156163Y170600D02*
X155787Y170413D01*
X155413*
X155037Y170600*
X154850Y170975*
X155037Y171350*
X155413Y171537*
X155787*
X155413D02*
X155037Y171725D01*
X154850Y172100*
X155037Y172475*
X155413Y172663*
X155787*
X156163Y172475*
X153350Y170600D02*
X152975Y170413D01*
X152413*
X152037Y170600*
X151850Y170975*
Y171163*
X152037Y171537*
X152413Y171725*
X153350*
Y172663*
X151850*
X159550Y189313D02*
Y191563D01*
X158425*
X158050Y191375*
X157863Y191187*
X157675Y190813*
Y190063*
X157863Y189687*
X158050Y189500*
X158425Y189313*
X159550*
X156550Y189875D02*
X156363Y190250D01*
X155987Y190437*
X155613*
X155237Y190250*
X155050Y189875*
X155237Y189500*
X155613Y189313*
X155987*
X156363Y189500*
X156550Y189875*
Y190437*
X156363Y191000*
X155987Y191375*
X155613Y191563*
X161950Y110963D02*
X161013Y108713D01*
X160075Y110963*
X158950Y108713D02*
Y110963D01*
X157637*
X157263Y110775*
X157075Y110400*
X157263Y110025*
X157637Y109837*
X158950*
X157637D02*
X157075Y108713D01*
X155575D02*
X154825D01*
X155200D02*
Y110963D01*
X155575Y110587*
X160675Y97287D02*
X160863Y97100D01*
X161237Y96913*
X161800*
X162175Y97100*
X162363Y97287*
X162550Y97663*
Y98413*
X162363Y98787*
X162175Y98975*
X161800Y99163*
X161237*
X160863Y98975*
X160675Y98787*
X159363Y97100D02*
X158987Y96913D01*
X158613*
X158237Y97100*
X158050Y97475*
X158237Y97850*
X158613Y98037*
X158987*
X158613D02*
X158237Y98225D01*
X158050Y98600*
X158237Y98975*
X158613Y99163*
X158987*
X159363Y98975*
X156550Y96913D02*
X155050Y99163D01*
X156550*
X164413Y80575D02*
X164600Y80763D01*
X164787Y81137*
Y81700*
X164600Y82075*
X164413Y82263*
X164037Y82450*
X163287*
X162913Y82263*
X162725Y82075*
X162537Y81700*
Y81137*
X162725Y80763*
X162913Y80575*
X164787Y78513D02*
X162537D01*
X164037Y79450*
Y77950*
X164600Y76263D02*
X164787Y75887D01*
Y75513*
X164600Y75137*
X164225Y74950*
X163850Y75137*
X163663Y75513*
Y75887*
Y75513D02*
X163475Y75137D01*
X163100Y74950*
X162725Y75137*
X162537Y75513*
Y75887*
X162725Y76263*
X166175Y123387D02*
X166363Y123200D01*
X166737Y123013*
X167300*
X167675Y123200*
X167863Y123387*
X168050Y123763*
Y124513*
X167863Y124887*
X167675Y125075*
X167300Y125263*
X166737*
X166363Y125075*
X166175Y124887*
X164113Y123013D02*
Y125263D01*
X165050Y123763*
X163550*
X161863Y123200D02*
X161487Y123013D01*
X161113*
X160737Y123200*
X160550Y123575*
Y124700*
X160737Y125075*
X161113Y125263*
X161487*
X161863Y125075*
X162050Y124700*
Y123575*
X161863Y123200*
X160737Y125075*
X168050Y133713D02*
X167113Y135963D01*
X166175Y133713*
X167675Y134650D02*
X166550D01*
X163737D02*
X163175D01*
Y134463*
X163363Y134087*
X163550Y133900*
X163925Y133713*
X164300*
X164675Y133900*
X164863Y134087*
X165050Y134463*
Y135213*
X164863Y135587*
X164675Y135775*
X164300Y135963*
X163925*
X163550Y135775*
X163363Y135587*
X163175Y135213*
X162050Y133713D02*
Y135963D01*
X160175Y133713*
Y135963*
X159050Y133713D02*
Y135963D01*
X157925*
X157550Y135775*
X157363Y135587*
X157175Y135213*
Y134463*
X157363Y134087*
X157550Y133900*
X157925Y133713*
X159050*
X170237Y64237D02*
X169863Y64050D01*
X169675Y63675*
X169863Y63300*
X170237Y63113*
X171550*
Y65363*
X170237*
X169863Y65175*
X169675Y64800*
X169863Y64425*
X170237Y64237*
X171550*
X168550Y65363D02*
Y63113D01*
X166675*
X165550D02*
Y65363D01*
X163675*
X164050Y64237D02*
X165550D01*
Y63113D02*
X163675D01*
X162175D02*
X161425D01*
X161800D02*
Y65363D01*
X162175Y64987*
X180150Y189613D02*
Y191863D01*
X179025*
X178650Y191675*
X178463Y191487*
X178275Y191113*
Y190363*
X178463Y189987*
X178650Y189800*
X179025Y189613*
X180150*
X177150D02*
X175650Y191863D01*
X177150*
X180775Y88287D02*
X180963Y88100D01*
X181337Y87913*
X181900*
X182275Y88100*
X182463Y88287*
X182650Y88663*
Y89413*
X182463Y89787*
X182275Y89975*
X181900Y90163*
X181337*
X180963Y89975*
X180775Y89787*
X178713Y87913D02*
Y90163D01*
X179650Y88663*
X178150*
X175713Y87913D02*
Y90163D01*
X176650Y88663*
X175150*
X182850Y93713D02*
Y95963D01*
X181537*
X181163Y95775*
X180975Y95400*
X181163Y95025*
X181537Y94837*
X182850*
X181537D02*
X180975Y93713D01*
X179287D02*
X178913Y93900D01*
X178537Y94275*
X178350Y94837*
Y95400*
X178537Y95775*
X178913Y95963*
X179287*
X179663Y95775*
X179850Y95400*
X179663Y95025*
X179287Y94837*
X178913*
X178537Y95025*
X178350Y95400*
X186437Y162037D02*
X186063Y161850D01*
X185875Y161475*
X186063Y161100*
X186437Y160913*
X187750*
Y163163*
X186437*
X186063Y162975*
X185875Y162600*
X186063Y162225*
X186437Y162037*
X187750*
X184187Y160913D02*
X183437D01*
X183813D02*
Y163163D01*
X184187D02*
X183437D01*
X181750Y160913D02*
X180813Y163163D01*
X179875Y160913*
X181375Y161850D02*
X180250D01*
X178750Y161475D02*
X178563Y161100D01*
X178187Y160913*
X177437*
X177063Y161100*
X176875Y161475*
X177063Y161850*
X177437Y162037*
X178187*
X178563Y162225*
X178750Y162600*
X178563Y162975*
X178187Y163163*
X177437*
X177063Y162975*
X176875Y162600*
X175750Y160913D02*
X173875D01*
X172187D02*
X171437D01*
X171813D02*
Y163163D01*
X172187D02*
X171437D01*
X169750Y160913D02*
Y163163D01*
X167875Y160913*
Y163163*
X166750D02*
X165813Y160913D01*
X164875Y163163*
X188350Y115063D02*
Y113375D01*
X188163Y113000*
X187787Y112813*
X187037*
X186663Y113000*
X186475Y113375*
Y115063*
X184413Y112813D02*
Y115063D01*
X185350Y113563*
X183850*
X195950Y85363D02*
Y83675D01*
X195763Y83300*
X195387Y83113*
X194637*
X194263Y83300*
X194075Y83675*
Y85363*
X192950Y83300D02*
X192575Y83113D01*
X192013*
X191637Y83300*
X191450Y83675*
Y83863*
X191637Y84237*
X192013Y84425*
X192950*
Y85363*
X191450*
X202263Y124537D02*
X202450Y124163D01*
X202825Y123975*
X203200Y124163*
X203387Y124537*
Y125850*
X201137*
Y124537*
X201325Y124163*
X201700Y123975*
X202075Y124163*
X202263Y124537*
Y125850*
X203387Y122475D02*
Y121725D01*
Y122100D02*
X201137D01*
X201513Y122475*
X209150Y161287D02*
Y159037D01*
X210275*
X210650Y159225*
X210837Y159413*
X211025Y159787*
Y160537*
X210837Y160913*
X210650Y161100*
X210275Y161287*
X209150*
X212713D02*
X213087Y161100D01*
X213463Y160725*
X213650Y160163*
Y159600*
X213463Y159225*
X213087Y159037*
X212713*
X212337Y159225*
X212150Y159600*
X212337Y159975*
X212713Y160163*
X213087*
X213463Y159975*
X213650Y159600*
X220450Y108513D02*
Y110763D01*
X219137*
X218763Y110575*
X218575Y110200*
X218763Y109825*
X219137Y109637*
X220450*
X219137D02*
X218575Y108513D01*
X217075D02*
X216325D01*
X216700D02*
Y110763D01*
X217075Y110387*
X214075Y108513D02*
X213325D01*
X213700D02*
Y110763D01*
X214075Y110387*
X220850Y121813D02*
Y124063D01*
X219537*
X219163Y123875*
X218975Y123500*
X219163Y123125*
X219537Y122937*
X220850*
X219537D02*
X218975Y121813D01*
X217475D02*
X216725D01*
X217100D02*
Y124063D01*
X217475Y123687*
X214663Y122000D02*
X214287Y121813D01*
X213913*
X213537Y122000*
X213350Y122375*
Y123500*
X213537Y123875*
X213913Y124063*
X214287*
X214663Y123875*
X214850Y123500*
Y122375*
X214663Y122000*
X213537Y123875*
X218975Y125487D02*
X219163Y125300D01*
X219537Y125113*
X220100*
X220475Y125300*
X220663Y125487*
X220850Y125863*
Y126613*
X220663Y126987*
X220475Y127175*
X220100Y127363*
X219537*
X219163Y127175*
X218975Y126987*
X216913Y125113D02*
Y127363D01*
X217850Y125863*
X216350*
X214850Y125300D02*
X214475Y125113D01*
X213913*
X213537Y125300*
X213350Y125675*
Y125863*
X213537Y126237*
X213913Y126425*
X214850*
Y127363*
X213350*
X222313Y103475D02*
X222500Y103663D01*
X222687Y104037*
Y104600*
X222500Y104975*
X222313Y105163*
X221937Y105350*
X221187*
X220813Y105163*
X220625Y104975*
X220437Y104600*
Y104037*
X220625Y103663*
X220813Y103475*
X222687Y101413D02*
X220437D01*
X221937Y102350*
Y100850*
X222125Y99350D02*
X221750Y99163D01*
X221563Y98787*
Y98413*
X221750Y98037*
X222125Y97850*
X222500Y98037*
X222687Y98413*
Y98787*
X222500Y99163*
X222125Y99350*
X221563*
X221000Y99163*
X220625Y98787*
X220437Y98413*
X239450Y142175D02*
X239263Y141800D01*
X238887Y141613*
X238137*
X237763Y141800*
X237575Y142175*
X237763Y142550*
X238137Y142737*
X238887*
X239263Y142925*
X239450Y143300*
X239263Y143675*
X238887Y143863*
X238137*
X237763Y143675*
X237575Y143300*
X236450Y143863D02*
X236263Y141613D01*
X235513Y142737*
X234763Y141613*
X234575Y143863*
X231950Y141613D02*
X233450D01*
X232137Y142925*
X231950Y143300*
X232137Y143675*
X232513Y143863*
X233075*
X233450Y143675*
D02*
D15*
X126300Y69300D02*
X131600D01*
Y81600*
X126300*
Y69300*
X132450Y68850D02*
X147450D01*
Y88850*
X132450*
Y68850*
X133558Y87115D02*
G75*
G02Y88009J447D01*
G01*
G75*
G02Y87115J-447*
G01*
X134550Y110850D02*
Y95850D01*
X154550*
Y110850*
X134550*
X144400Y111800D02*
Y117100D01*
X132100*
Y111800*
X144400*
X146700Y89800D02*
Y95100D01*
X134400*
Y89800*
X146700*
X152743Y110091D02*
G75*
G02X153636I447D01*
G01*
G75*
G02X152743I-447*
G01*
X162050Y115350D02*
Y100350D01*
X182050*
Y115350*
X162050*
X170250Y85650D02*
Y70650D01*
X190250*
Y85650*
X170250*
X180243Y114591D02*
G75*
G02X181136I447D01*
G01*
G75*
G02X180243I-447*
G01*
X188443Y84891D02*
G75*
G02X189336I447D01*
G01*
G75*
G02X188443I-447*
G01*
D02*
D18*
X77081Y201138D02*
X78970D01*
X78540Y200054D02*
G75*
G02X77511I-515J1085D01*
G01*
X78970Y192280D02*
X77081D01*
X96481Y201338D02*
X98370D01*
X97940Y200254D02*
G75*
G02X96911I-515J1085D01*
G01*
X98370Y192480D02*
X96481D01*
X116681Y201738D02*
X118570D01*
X118140Y200654D02*
G75*
G02X117111I-515J1085D01*
G01*
X118570Y192880D02*
X116681D01*
X136481Y201938D02*
X138370D01*
X137940Y200854D02*
G75*
G02X136911I-515J1085D01*
G01*
X138370Y193080D02*
X136481D01*
X156481Y202138D02*
X158370D01*
X157940Y201054D02*
G75*
G02X156911I-515J1085D01*
G01*
X158370Y193280D02*
X156481D01*
X176681Y202338D02*
X178570D01*
X178140Y201254D02*
G75*
G02X177111I-515J1085D01*
G01*
X178570Y193480D02*
X176681D01*
X0Y0D02*
M02*
