G04 EasyPC Gerber Version 21.0.3 Build 4286 *
G04 #@! TF.Part,Single*
G04 #@! TF.FileFunction,Copper,L3,Inr *
G04 #@! TF.FilePolarity,Positive *
%FSLAX35Y35*%
%MOIN*%
G04 #@! TA.AperFunction,ComponentPad*
%ADD72R,0.06000X0.06000*%
G04 #@! TD.AperFunction*
%ADD11C,0.00500*%
%ADD19C,0.01500*%
G04 #@! TA.AperFunction,ViaPad*
%ADD83C,0.03200*%
G04 #@! TA.AperFunction,ComponentPad*
%ADD80C,0.03600*%
G04 #@! TA.AperFunction,WasherPad*
%ADD70C,0.06000*%
G04 #@! TA.AperFunction,ComponentPad*
%AMT77*0 Rectangle Pad at angle 45*21,1,0.06000,0.06000,0,0,45*%
%ADD77T77*%
X0Y0D02*
D02*
D11*
X26918Y193682D02*
X3450Y170215D01*
Y162596*
G75*
G02X24350Y161150I10400J-1446*
G01*
G75*
G02X3450Y159704I-10500*
G01*
Y82596*
G75*
G02X24350Y81150I10400J-1446*
G01*
G75*
G02X3450Y79704I-10500*
G01*
Y72385*
X72685Y3150*
X121650*
Y18750*
X134691*
G75*
G02X132700Y22350I2259J3600*
G01*
G75*
G02X141200I4250*
G01*
G75*
G02X139209Y18750I-4250*
G01*
X144691*
G75*
G02X142700Y22350I2259J3600*
G01*
G75*
G02X151200I4250*
G01*
G75*
G02X149209Y18750I-4250*
G01*
X186315*
X240050Y72485*
Y77652*
G75*
G02X219650Y81150I-9900J3498*
G01*
G75*
G02X240050Y84648I10500*
G01*
Y157652*
G75*
G02X219650Y161150I-9900J3498*
G01*
G75*
G02X240050Y164648I10500*
G01*
Y170315*
X209932Y200432*
X170950Y161450*
Y129050*
X165850Y123950*
X132750*
Y122250*
X99950*
Y117650*
X74250*
X58550Y133350*
Y162050*
X26918Y193682*
X24491Y145899D02*
X30501Y151909D01*
X36511Y145899*
X30501Y139889*
X24491Y145899*
X31562Y138828D02*
X37572Y144838D01*
X43583Y138828*
X37572Y132817*
X31562Y138828*
X36708Y57592D02*
G75*
G02X41021Y53279I2157J-2157D01*
G01*
G75*
G02X36708Y57592I-2157J2157*
G01*
X38633Y131757D02*
X44643Y137767D01*
X50654Y131757*
X44643Y125746*
X38633Y131757*
X45704Y124685D02*
X51715Y130696D01*
X57725Y124685*
X51715Y118675*
X45704Y124685*
X52775Y117615D02*
X58785Y123625D01*
X64796Y117615*
X58785Y111604*
X52775Y117615*
X58982Y35318D02*
G75*
G02X63295Y31005I2157J-2157D01*
G01*
G75*
G02X58982Y35318I-2157J2157*
G01*
X59846Y110543D02*
X65857Y116554D01*
X71867Y110543*
X65857Y104533*
X59846Y110543*
X66917Y103472D02*
X72928Y109483D01*
X78938Y103472*
X72928Y97462*
X66917Y103472*
X68857Y73767D02*
G75*
G02X65400Y76150I-907J2383D01*
G01*
G75*
G02X70500I2550*
G01*
G75*
G02X70243Y75033I-2550J0*
G01*
G75*
G02X73700Y72650I907J-2383*
G01*
G75*
G02X68600I-2550*
G01*
G75*
G02X68857Y73767I2550J0*
G01*
X72900Y68950D02*
G75*
G02X78000I2550D01*
G01*
G75*
G02X72900I-2550*
G01*
X73989Y96401D02*
X79999Y102411D01*
X86009Y96401*
X79999Y90391*
X73989Y96401*
X89972Y89122D02*
G75*
G02X89200Y90950I1778J1828D01*
G01*
G75*
G02X93578Y92728I2550*
G01*
G75*
G02X94350Y90900I-1778J-1828*
G01*
G75*
G02X89972Y89122I-2550*
G01*
X90700Y33550D02*
G75*
G02X85600I-2550D01*
G01*
G75*
G02X90700I2550*
G01*
X95300Y26850D02*
G75*
G02X90200I-2550D01*
G01*
G75*
G02X95300I2550*
G01*
X99600Y44650D02*
G75*
G02X94500I-2550D01*
G01*
G75*
G02X99600I2550*
G01*
X100200Y75750D02*
G75*
G02X95100I-2550D01*
G01*
G75*
G02X100200I2550*
G01*
Y91650D02*
G75*
G02X95100I-2550D01*
G01*
G75*
G02X100200I2550*
G01*
X102800Y61050D02*
G75*
G02X107900I2550D01*
G01*
G75*
G02X102800I-2550*
G01*
X104131Y97394D02*
G75*
G02X103800Y98650I2219J1257D01*
G01*
G75*
G02X108900I2550*
G01*
G75*
G02X104969Y96506I-2550*
G01*
G75*
G02X105300Y95250I-2219J-1257*
G01*
G75*
G02X100200I-2550*
G01*
G75*
G02X104131Y97394I2550*
G01*
X104700Y110950D02*
G75*
G02X99600I-2550D01*
G01*
G75*
G02X104700I2550*
G01*
X105300Y80650D02*
G75*
G02X100200I-2550D01*
G01*
G75*
G02X105300I2550*
G01*
X105800Y44850D02*
G75*
G02X100700I-2550D01*
G01*
G75*
G02X105800I2550*
G01*
X111700Y79650D02*
G75*
G02X106600I-2550D01*
G01*
G75*
G02X111700I2550*
G01*
Y91850D02*
G75*
G02X106600I-2550D01*
G01*
G75*
G02X111700I2550*
G01*
X115300Y96550D02*
G75*
G02X110200I-2550D01*
G01*
G75*
G02X115300I2550*
G01*
X115520Y72350D02*
G75*
G02X110420I-2550D01*
G01*
G75*
G02X115520I2550*
G01*
X118800Y91750D02*
G75*
G02X113700I-2550D01*
G01*
G75*
G02X118800I2550*
G01*
X119800Y101350D02*
G75*
G02X114700I-2550D01*
G01*
G75*
G02X119800I2550*
G01*
X130100Y100250D02*
G75*
G02X125000I-2550D01*
G01*
G75*
G02X130100I2550*
G01*
X131300Y106350D02*
G75*
G02X126200I-2550D01*
G01*
G75*
G02X131300I2550*
G01*
X132900Y54550D02*
G75*
G02X127800I-2550D01*
G01*
G75*
G02X132900I2550*
G01*
X141200Y32350D02*
G75*
G02X132700I-4250D01*
G01*
G75*
G02X141200I4250*
G01*
Y42350D02*
G75*
G02X132700I-4250D01*
G01*
G75*
G02X141200I4250*
G01*
Y52350D02*
G75*
G02X132700I-4250D01*
G01*
G75*
G02X141200I4250*
G01*
X151200Y32350D02*
G75*
G02X142700I-4250D01*
G01*
G75*
G02X151200I4250*
G01*
Y42350D02*
G75*
G02X142700I-4250D01*
G01*
G75*
G02X151200I4250*
G01*
Y52350D02*
G75*
G02X142700I-4250D01*
G01*
G75*
G02X151200I4250*
G01*
X154965Y93648D02*
G75*
G02X153700Y95850I1285J2202D01*
G01*
G75*
G02X158800I2550*
G01*
G75*
G02X155735Y93352I-2550*
G01*
G75*
G02X157000Y91150I-1285J-2202*
G01*
G75*
G02X151900I-2550*
G01*
G75*
G02X154965Y93648I2550*
G01*
X158200Y79250D02*
G75*
G02X153100I-2550D01*
G01*
G75*
G02X158200I2550*
G01*
X159600Y64350D02*
G75*
G02X154500I-2550D01*
G01*
G75*
G02X159600I2550*
G01*
X168900Y87050D02*
G75*
G02X174000I2550D01*
G01*
G75*
G02X168900I-2550*
G01*
X169850Y72500D02*
G75*
G02Y67400J-2550D01*
G01*
G75*
G02Y72500J2550*
G01*
X179600Y44550D02*
G75*
G02X184700I2550D01*
G01*
G75*
G02X179600I-2550*
G01*
X182700Y69450D02*
G75*
G02X177600I-2550D01*
G01*
G75*
G02X182700I2550*
G01*
X183400Y100250D02*
G75*
G02X188500I2550D01*
G01*
G75*
G02X183400I-2550*
G01*
X183800Y52250D02*
G75*
G02X188900I2550D01*
G01*
G75*
G02X183800I-2550*
G01*
X186537Y35247D02*
X192547Y29237D01*
X186537Y23226*
X180526Y29237*
X186537Y35247*
X193608Y42318D02*
X199618Y36308D01*
X193608Y30298*
X187598Y36308*
X193608Y42318*
X195050Y125600D02*
G75*
G02Y130700J2550D01*
G01*
G75*
G02Y125600J-2550*
G01*
X199600Y92850D02*
G75*
G02X194500I-2550D01*
G01*
G75*
G02X199600I2550*
G01*
X199800Y98550D02*
G75*
G02X194700I-2550D01*
G01*
G75*
G02X199800I2550*
G01*
X200679Y49389D02*
X206689Y43379D01*
X200679Y37369*
X194669Y43379*
X200679Y49389*
X203400Y68400D02*
X211900D01*
Y59900*
X203400*
Y68400*
Y78400D02*
X211900D01*
Y69900*
X203400*
Y78400*
Y88400D02*
X211900D01*
Y79900*
X203400*
Y88400*
Y98400D02*
X211900D01*
Y89900*
X203400*
Y98400*
Y108400D02*
X211900D01*
Y99900*
X203400*
Y108400*
Y118400D02*
X211900D01*
Y109900*
X203400*
Y118400*
X207750Y56460D02*
X213760Y50450D01*
X207750Y44440*
X201740Y50450*
X207750Y56460*
X213900Y128650D02*
G75*
G02X219000I2550D01*
G01*
G75*
G02X213900I-2550*
G01*
X219800Y141950D02*
G75*
G02X224900I2550D01*
G01*
G75*
G02X219800I-2550*
G01*
X235750Y107400D02*
G75*
G02Y113500J3050D01*
G01*
G75*
G02Y107400J-3050*
G01*
Y127000D02*
G75*
G02Y133100J3050D01*
G01*
G75*
G02Y127000J-3050*
G01*
X194415Y26850D02*
G36*
X190160D01*
X186537Y23226*
X182913Y26850*
X95300*
G75*
G02X90200I-2550*
G01*
X48985*
X72435Y3400*
X121650*
Y18750*
X134691*
G75*
G02X132700Y22349I2258J3599*
G01*
G75*
G02Y22350I3759J0*
G01*
G75*
G02X141200I4250*
G01*
G75*
G02Y22349I-3759J0*
G01*
G75*
G02X139209Y18750I-4249*
G01*
X144691*
G75*
G02X142700Y22349I2258J3599*
G01*
G75*
G02Y22350I3759J0*
G01*
G75*
G02X151200I4250*
G01*
G75*
G02Y22349I-3759J0*
G01*
G75*
G02X149209Y18750I-4249*
G01*
X186315*
X194415Y26850*
G37*
X182913D02*
G36*
X180526Y29237D01*
X184451Y33161*
X151122*
G75*
G02X151200Y32350I-4172J-812*
G01*
G75*
G02X142700I-4250*
G01*
G75*
G02X142778Y33161I4250J-1*
G01*
X141122*
G75*
G02X141200Y32350I-4172J-812*
G01*
G75*
G02X132700I-4250*
G01*
G75*
G02X132778Y33161I4250J-1*
G01*
X90670*
G75*
G02X85630I-2520J389*
G01*
X64189*
G75*
G02X63295Y31005I-3050*
G01*
G75*
G02X58089Y33161I-2157J2157*
G01*
X42674*
X48985Y26850*
X90200*
G75*
G02X95300I2550*
G01*
X182913*
G37*
X200726Y33161D02*
G36*
X196472D01*
X193608Y30298*
X190744Y33161*
X188622*
X192547Y29237*
X190160Y26850*
X194415*
X200726Y33161*
G37*
X212215Y44650D02*
G36*
X207960D01*
X207750Y44440*
X207540Y44650*
X205418*
X206689Y43379*
X200679Y37369*
X194669Y43379*
X195940Y44650*
X184698*
G75*
G02X184700Y44550I-2548J-100*
G01*
G75*
G02X179600I-2550*
G01*
G75*
G02X179602Y44650I2550*
G01*
X150524*
G75*
G02X151200Y42350I-3574J-2300*
G01*
G75*
G02X142700I-4250*
G01*
G75*
G02X143376Y44650I4250J0*
G01*
X140524*
G75*
G02X141200Y42350I-3574J-2300*
G01*
G75*
G02X132700I-4250*
G01*
G75*
G02X133376Y44650I4250J0*
G01*
X105792*
G75*
G02X100708I-2542J200*
G01*
X99600*
G75*
G02X94500I-2550*
G01*
X31185*
X42674Y33161*
X58089*
G75*
G02X58982Y35318I3050*
G01*
G75*
G02X64189Y33161I2157J-2157*
G01*
X85630*
G75*
G02X85600Y33550I2520J389*
G01*
G75*
G02X90700I2550*
G01*
G75*
G02X90670Y33161I-2550J1*
G01*
X132778*
G75*
G02X141122I4172J-811*
G01*
X142778*
G75*
G02X151122I4172J-811*
G01*
X184451*
X186537Y35247*
X188622Y33161*
X190744*
X187598Y36308*
X193608Y42318*
X199618Y36308*
X196472Y33161*
X200726*
X212215Y44650*
G37*
X203540Y52250D02*
G36*
X188900D01*
G75*
G02X183800I-2550*
G01*
X151199*
G75*
G02X142701I-4249J100*
G01*
X141199*
G75*
G02X132701I-4249J100*
G01*
X131451*
G75*
G02X129249I-1101J2300*
G01*
X23585*
X31185Y44650*
X94500*
G75*
G02X99600I2550*
G01*
X100708*
G75*
G02X100700Y44850I2543J200*
G01*
G75*
G02X105800I2550*
G01*
G75*
G02X105792Y44650I-2550J0*
G01*
X133376*
G75*
G02X140524I3574J-2300*
G01*
X143376*
G75*
G02X150524I3574J-2300*
G01*
X179602*
G75*
G02X184698I2548J-100*
G01*
X195940*
X200679Y49389*
X205418Y44650*
X207540*
X201740Y50450*
X203540Y52250*
G37*
X219815D02*
G36*
X211960D01*
X213760Y50450*
X207960Y44650*
X212215*
X219815Y52250*
G37*
X127959Y55435D02*
G36*
X41915D01*
G75*
G02X41021Y53279I-3050*
G01*
G75*
G02X35815Y55435I-2157J2157*
G01*
X20400*
X23585Y52250*
X129249*
G75*
G02X127800Y54550I1101J2300*
G01*
G75*
G02X127959Y55435I2550*
G01*
G37*
X132701Y52250D02*
G36*
G75*
G02X132700Y52350I4250J100D01*
G01*
G75*
G02X134027Y55435I4250*
G01*
X132741*
G75*
G02X132900Y54550I-2391J-885*
G01*
G75*
G02X131451Y52250I-2550*
G01*
X132701*
G37*
X203540D02*
G36*
X206725Y55435D01*
X149873*
G75*
G02X151200Y52350I-2923J-3085*
G01*
G75*
G02X151199Y52250I-4251J0*
G01*
X183800*
G75*
G02X188900I2550*
G01*
X203540*
G37*
X142701D02*
G36*
G75*
G02X142700Y52350I4250J100D01*
G01*
G75*
G02X144027Y55435I4250*
G01*
X139873*
G75*
G02X141200Y52350I-2923J-3085*
G01*
G75*
G02X141199Y52250I-4251J0*
G01*
X142701*
G37*
X223000Y55435D02*
G36*
X208775D01*
X211960Y52250*
X219815*
X223000Y55435*
G37*
X228615Y61050D02*
G36*
X211900D01*
Y59900*
X203400*
Y61050*
X107900*
G75*
G02X102800I-2550*
G01*
X14785*
X20400Y55435*
X35815*
G75*
G02X36708Y57592I3050*
G01*
G75*
G02X41915Y55435I2157J-2157*
G01*
X127959*
G75*
G02X132741I2391J-885*
G01*
X134027*
G75*
G02X139873I2923J-3085*
G01*
X144027*
G75*
G02X149873I2923J-3085*
G01*
X206725*
X207750Y56460*
X208775Y55435*
X223000*
X228615Y61050*
G37*
X203400Y64350D02*
G36*
X159600D01*
G75*
G02X154500I-2550*
G01*
X11485*
X14785Y61050*
X102800*
G75*
G02X107900I2550*
G01*
X203400*
Y64350*
G37*
X231915D02*
G36*
X211900D01*
Y61050*
X228615*
X231915Y64350*
G37*
X236515Y68950D02*
G36*
X182650D01*
G75*
G02X177650I-2500J500*
G01*
X172196*
G75*
G02X169850Y67400I-2346J1000*
G01*
G75*
G02X167504Y68950J2550*
G01*
X78000*
G75*
G02X72900I-2550*
G01*
X6885*
X11485Y64350*
X154500*
G75*
G02X159600I2550*
G01*
X203400*
Y68400*
X211900*
Y64350*
X231915*
X236515Y68950*
G37*
X222107Y74400D02*
G36*
X211900D01*
Y69900*
X203400*
Y74400*
X114487*
G75*
G02X115520Y72350I-1517J-2050*
G01*
G75*
G02X110420I-2550*
G01*
G75*
G02X111454Y74400I2550*
G01*
X99813*
G75*
G02X95487I-2163J1350*
G01*
X73005*
G75*
G02X73700Y72650I-1855J-1750*
G01*
G75*
G02X68600I-2550*
G01*
G75*
G02X68857Y73767I2556J-1*
G01*
G75*
G02X66095Y74400I-907J2383*
G01*
X21893*
G75*
G02X5807I-8043J6750*
G01*
X3700*
Y72135*
X6885Y68950*
X72900*
G75*
G02X78000I2550*
G01*
X167504*
G75*
G02X167300Y69950I2346J1000*
G01*
G75*
G02X169850Y72500I2550*
G01*
G75*
G02X172400Y69950J-2550*
G01*
G75*
G02X172196Y68950I-2550*
G01*
X177650*
G75*
G02X177600Y69450I2501J500*
G01*
G75*
G02X182700I2550*
G01*
G75*
G02X182650Y68950I-2550J0*
G01*
X236515*
X239800Y72235*
Y74400*
X238193*
G75*
G02X222107I-8043J6750*
G01*
G37*
X219662Y80650D02*
G36*
X211900D01*
Y79900*
X203400*
Y80650*
X157781*
G75*
G02X158200Y79250I-2131J-1400*
G01*
G75*
G02X153100I-2550*
G01*
G75*
G02X153519Y80650I2550J0*
G01*
X111496*
G75*
G02X111700Y79650I-2346J-1000*
G01*
G75*
G02X106600I-2550*
G01*
G75*
G02X106804Y80650I2550*
G01*
X105300*
G75*
G02X100200I-2550*
G01*
X24338*
G75*
G02X21893Y74400I-10488J501*
G01*
X66095*
G75*
G02X65400Y76150I1855J1750*
G01*
G75*
G02X70500I2550*
G01*
G75*
G02X70243Y75033I-2556J1*
G01*
G75*
G02X73005Y74400I907J-2383*
G01*
X95487*
G75*
G02X95100Y75750I2163J1350*
G01*
G75*
G02X100200I2550*
G01*
G75*
G02X99813Y74400I-2550*
G01*
X111454*
G75*
G02X114487I1517J-2050*
G01*
X203400*
Y78400*
X211900*
Y74400*
X222107*
G75*
G02X219662Y80650I8043J6750*
G01*
G37*
X5807Y74400D02*
G36*
G75*
G02X3700Y78462I8043J6750D01*
G01*
Y74400*
X5807*
G37*
X239800Y77011D02*
G36*
G75*
G02X238193Y74400I-9650J4138D01*
G01*
X239800*
Y77011*
G37*
X203400Y87050D02*
G36*
X174000D01*
G75*
G02X168900I-2550*
G01*
X22535*
G75*
G02X24350Y81150I-8686J-5900*
G01*
G75*
G02X24338Y80650I-10502J-2*
G01*
X100200*
G75*
G02X105300I2550*
G01*
X106804*
G75*
G02X111496I2346J-1000*
G01*
X153519*
G75*
G02X157781I2131J-1400*
G01*
X203400*
Y87050*
G37*
X5165D02*
G36*
X3700D01*
Y83838*
G75*
G02X5165Y87050I10150J-2689*
G01*
G37*
X219662Y80650D02*
G36*
G75*
G02X219650Y81150I10490J498D01*
G01*
G75*
G02X221465Y87050I10500J0*
G01*
X211900*
Y80650*
X219662*
G37*
X239800Y85289D02*
G36*
Y87050D01*
X238835*
G75*
G02X239800Y85289I-8685J-5901*
G01*
G37*
X221465Y87050D02*
G36*
G75*
G02X226316Y90925I8685J-5900D01*
G01*
X211900*
Y89900*
X203400*
Y90925*
X198722*
G75*
G02X195378I-1672J1925*
G01*
X156990*
G75*
G02X151910I-2540J225*
G01*
X118663*
G75*
G02X113837I-2413J825*
G01*
X111526*
G75*
G02X106774I-2376J925*
G01*
X100095*
G75*
G02X95205I-2445J725*
G01*
X94350*
G75*
G02Y90900I-2571J-12*
G01*
Y90900*
G75*
G02X89972Y89122I-2550*
G01*
G75*
G02X89200Y90925I1776J1828*
G01*
X80533*
X79999Y90391*
X79465Y90925*
X17684*
G75*
G02X22535Y87050I-3834J-9775*
G01*
X168900*
G75*
G02X174000I2550*
G01*
X203400*
Y88400*
X211900*
Y87050*
X221465*
G37*
X5165D02*
G36*
G75*
G02X10016Y90925I8686J-5900D01*
G01*
X3700*
Y87050*
X5165*
G37*
X238835D02*
G36*
X239800D01*
Y90925*
X233984*
G75*
G02X238835Y87050I-3834J-9775*
G01*
G37*
X73989Y96401D02*
G36*
X3700D01*
Y90925*
X10016*
G75*
G02X17684I3834J-9774*
G01*
X79465*
X73989Y96401*
G37*
X153760D02*
G36*
X115296D01*
G75*
G02X110204I-2546J149*
G01*
X107552*
G75*
G02X105148I-1202J2249*
G01*
X105025*
G75*
G02X105300Y95250I-2277J-1152*
G01*
G75*
G02X100200I-2550*
G01*
G75*
G02X100475Y96401I2550J0*
G01*
X86009*
X80533Y90925*
X89200*
G75*
G02Y90950I2570J13*
G01*
Y90950*
G75*
G02X93578Y92728I2550*
G01*
G75*
G02X94350Y90925I-1776J-1828*
G01*
X95205*
G75*
G02X95100Y91650I2445J724*
G01*
G75*
G02X100200I2550*
G01*
G75*
G02X100095Y90925I-2550J-1*
G01*
X106774*
G75*
G02X106600Y91850I2376J925*
G01*
G75*
G02X111700I2550*
G01*
G75*
G02X111526Y90925I-2550J0*
G01*
X113837*
G75*
G02X113700Y91750I2413J826*
G01*
G75*
G02X118800I2550*
G01*
G75*
G02X118663Y90925I-2550J0*
G01*
X151910*
G75*
G02X151900Y91150I2541J224*
G01*
G75*
G02X154965Y93648I2550*
G01*
G75*
G02X153700Y95849I1283J2202*
G01*
G75*
G02Y95850I2374J0*
G01*
G75*
G02X153760Y96401I2550*
G01*
G37*
X203400D02*
G36*
X198623D01*
G75*
G02X195877I-1373J2149*
G01*
X158740*
G75*
G02X158800Y95850I-2490J-551*
G01*
G75*
G02X155735Y93352I-2550*
G01*
G75*
G02X157000Y91151I-1283J-2202*
G01*
G75*
G02Y91150I-2374J0*
G01*
G75*
G02X156990Y90925I-2550J-1*
G01*
X195378*
G75*
G02X194500Y92850I1672J1925*
G01*
G75*
G02X199600I2550*
G01*
G75*
G02X198722Y90925I-2550*
G01*
X203400*
Y96401*
G37*
X233984Y90925D02*
G36*
X239800D01*
Y96401*
X211900*
Y90925*
X226316*
G75*
G02X233984I3834J-9775*
G01*
G37*
X73989Y96401D02*
G36*
X77837Y100250D01*
X75715*
X72928Y97462*
X70140Y100250*
X3700*
Y96401*
X73989*
G37*
X104365Y100250D02*
G36*
X82160D01*
X86009Y96401*
X100475*
G75*
G02X104131Y97394I2276J-1152*
G01*
G75*
G02X103800Y98650I2220J1257*
G01*
G75*
G02X104365Y100250I2550J0*
G01*
G37*
X105148Y96401D02*
G36*
G75*
G02X104969Y96506I1202J2249D01*
G01*
G75*
G02X105025Y96401I-2220J-1257*
G01*
X105148*
G37*
X195349Y100250D02*
G36*
X188500D01*
G75*
G02X183400I-2550*
G01*
X130100*
G75*
G02X125000I-2550*
G01*
X119550*
G75*
G02X114950I-2300J1100*
G01*
X108335*
G75*
G02X108900Y98650I-1985J-1600*
G01*
G75*
G02X107552Y96401I-2550J0*
G01*
X110204*
G75*
G02X110200Y96550I2546J148*
G01*
G75*
G02X115300I2550*
G01*
G75*
G02X115296Y96401I-2550J0*
G01*
X153760*
G75*
G02X158740I2490J-551*
G01*
X195877*
G75*
G02X194700Y98550I1373J2149*
G01*
G75*
G02X195349Y100250I2550*
G01*
G37*
X211900D02*
G36*
Y99900D01*
X203400*
Y100250*
X199151*
G75*
G02X199800Y98550I-1901J-1700*
G01*
G75*
G02X198623Y96401I-2550*
G01*
X203400*
Y98400*
X211900*
Y96401*
X239800*
Y100250*
X211900*
G37*
X66917Y103472D02*
G36*
X3700D01*
Y100250*
X70140*
X66917Y103472*
G37*
X114950Y100250D02*
G36*
G75*
G02X114700Y101350I2300J1100D01*
G01*
G75*
G02X115837Y103472I2550*
G01*
X78938*
X75715Y100250*
X77837*
X79999Y102411*
X82160Y100250*
X104365*
G75*
G02X108335I1985J-1600*
G01*
X114950*
G37*
X203400Y103472D02*
G36*
X118663D01*
G75*
G02X119800Y101350I-1413J-2122*
G01*
G75*
G02X119550Y100250I-2550J0*
G01*
X125000*
G75*
G02X130100I2550*
G01*
X183400*
G75*
G02X188500I2550*
G01*
X195349*
G75*
G02X199151I1901J-1700*
G01*
X203400*
Y103472*
G37*
X211900D02*
G36*
Y100250D01*
X239800*
Y103472*
X211900*
G37*
X66917D02*
G36*
X69795Y106350D01*
X67674*
X65857Y104533*
X64040Y106350*
X3700*
Y103472*
X66917*
G37*
X203400Y106350D02*
G36*
X131300D01*
G75*
G02X126200I-2550*
G01*
X76060*
X78938Y103472*
X115837*
G75*
G02X118663I1413J-2122*
G01*
X203400*
Y106350*
G37*
X211900D02*
G36*
Y103472D01*
X239800*
Y106350*
X211900*
G37*
X59846Y110543D02*
G36*
X3700D01*
Y106350*
X64040*
X59846Y110543*
G37*
X211900D02*
G36*
Y109900D01*
X203400*
Y110543*
X104667*
G75*
G02X99633I-2517J407*
G01*
X71867*
X67674Y106350*
X69795*
X72928Y109483*
X76060Y106350*
X126200*
G75*
G02X131300I2550*
G01*
X203400*
Y108400*
X211900*
Y106350*
X239800*
Y110543*
X238798*
G75*
G02X238800Y110450I-3049J-98*
G01*
G75*
G02X235750Y107400I-3050*
G01*
G75*
G02X232700Y110450J3050*
G01*
G75*
G02X232702Y110543I3050J-5*
G01*
X211900*
G37*
X203400Y117615D02*
G36*
X64796D01*
X58785Y111604*
X52775Y117615*
X3700*
Y110543*
X59846*
X65857Y116554*
X71867Y110543*
X99633*
G75*
G02X99600Y110950I2517J407*
G01*
G75*
G02X104700I2550*
G01*
G75*
G02X104667Y110543I-2550J0*
G01*
X203400*
Y117615*
G37*
X211900D02*
G36*
Y110543D01*
X232702*
G75*
G02X235750Y113500I3048J-93*
G01*
G75*
G02X238798Y110543J-3050*
G01*
X239800*
Y117615*
X211900*
G37*
X166585Y124685D02*
G36*
X165850Y123950D01*
X132750*
Y122250*
X99950*
Y117650*
X74250*
X67215Y124685*
X57725*
X51715Y118675*
X45704Y124685*
X3700*
Y117615*
X52775*
X58785Y123625*
X64796Y117615*
X203400*
Y118400*
X211900*
Y117615*
X239800*
Y124685*
X166585*
G37*
X63750Y128150D02*
G36*
X54260D01*
X57725Y124685*
X67215*
X63750Y128150*
G37*
X45704Y124685D02*
G36*
X49169Y128150D01*
X47047*
X44643Y125746*
X42240Y128150*
X3700*
Y124685*
X45704*
G37*
X238136Y128150D02*
G36*
G75*
G02X235750Y127000I-2386J1900D01*
G01*
G75*
G02X233364Y128150J3050*
G01*
X218950*
G75*
G02X213950I-2500J500*
G01*
X197600*
G75*
G02X195050Y125600I-2550*
G01*
G75*
G02X192500Y128150J2550*
G01*
X170050*
X166585Y124685*
X239800*
Y128150*
X238136*
G37*
X60143Y131757D02*
G36*
X50654D01*
X47047Y128150*
X49169*
X51715Y130696*
X54260Y128150*
X63750*
X60143Y131757*
G37*
X38633D02*
G36*
X3700D01*
Y128150*
X42240*
X38633Y131757*
G37*
X233222D02*
G36*
X170950D01*
Y129050*
X170050Y128150*
X192500*
G75*
G02X195050Y130700I2550*
G01*
G75*
G02X197600Y128150J-2550*
G01*
X213950*
G75*
G02X213900Y128650I2501J500*
G01*
G75*
G02X219000I2550*
G01*
G75*
G02X218950Y128150I-2550J0*
G01*
X233364*
G75*
G02X232700Y130050I2386J1900*
G01*
G75*
G02X233222Y131757I3050J0*
G01*
G37*
X238278D02*
G36*
G75*
G02X238800Y130050I-2528J-1706D01*
G01*
G75*
G02X238136Y128150I-3050*
G01*
X239800*
Y131757*
X238278*
G37*
X58550Y138828D02*
G36*
X43583D01*
X37572Y132817*
X31562Y138828*
X3700*
Y131757*
X38633*
X44643Y137767*
X50654Y131757*
X60143*
X58550Y133350*
Y138828*
G37*
X170950D02*
G36*
Y131757D01*
X233222*
G75*
G02X235750Y133100I2528J-1707*
G01*
G75*
G02X238278Y131757J-3050*
G01*
X239800*
Y138828*
X170950*
G37*
X58550Y141950D02*
G36*
X40460D01*
X43583Y138828*
X58550*
Y141950*
G37*
X31562Y138828D02*
G36*
X34685Y141950D01*
X32563*
X30501Y139889*
X28440Y141950*
X3700*
Y138828*
X31562*
G37*
X170950Y141950D02*
G36*
Y138828D01*
X239800*
Y141950*
X224900*
G75*
G02X219800I-2550*
G01*
X170950*
G37*
X58550Y145899D02*
G36*
X36511D01*
X32563Y141950*
X34685*
X37572Y144838*
X40460Y141950*
X58550*
Y145899*
G37*
X24491D02*
G36*
X3700D01*
Y141950*
X28440*
X24491Y145899*
G37*
X170950D02*
G36*
Y141950D01*
X219800*
G75*
G02X224900I2550*
G01*
X239800*
Y145899*
X170950*
G37*
X58550D02*
G36*
Y162050D01*
X26918Y193682*
X3700Y170465*
Y163838*
G75*
G02X24350Y161150I10150J-2689*
G01*
G75*
G02X3700Y158462I-10500J0*
G01*
Y145899*
X24491*
X30501Y151909*
X36511Y145899*
X58550*
G37*
X170950D02*
G36*
X239800D01*
Y157011*
G75*
G02X219650Y161150I-9650J4139*
G01*
G75*
G02X239800Y165289I10500*
G01*
Y170565*
X210182Y200182*
X209682*
X170950Y161450*
Y145899*
G37*
X27968Y194732D02*
X60250Y162450D01*
Y133450*
X74650Y119050*
X98750*
Y123450*
X165350*
X169050Y127150*
Y162350*
X208532Y201832*
X170815Y239550*
X72785*
X27968Y194732*
X66900Y211800D02*
Y203300D01*
X58400*
Y211800*
X66900*
Y221800D02*
Y213300D01*
X58400*
Y221800*
X66900*
X73900Y138150D02*
G75*
G02X68800I-2550D01*
G01*
G75*
G02X73900I2550*
G01*
X76005Y176810D02*
G75*
G02X81100Y176675I2545J-160D01*
G01*
G75*
G02X83814Y176919I1550J-2024*
G01*
G75*
G02X88900Y176650I2536J-269*
G01*
G75*
G02X85186Y174381I-2550*
G01*
G75*
G02X80100Y174625I-2536J269*
G01*
G75*
G02X77195Y174490I-1550J2025*
G01*
G75*
G02X72100Y174650I-2545J160*
G01*
G75*
G02X76005Y176810I2550*
G01*
X76900Y211800D02*
Y203300D01*
X68400*
Y211800*
X76900*
Y221800D02*
Y213300D01*
X68400*
Y221800*
X76900*
X86900Y211800D02*
Y203300D01*
X78400*
Y211800*
X86900*
Y221800D02*
Y213300D01*
X78400*
Y221800*
X86900*
X95204Y176500D02*
G75*
G02X95200Y176650I2548J149D01*
G01*
G75*
G02X100300I2550*
G01*
G75*
G02X95996Y174800I-2550*
G01*
G75*
G02X96000Y174650I-2549J-149*
G01*
G75*
G02X90900I-2550*
G01*
G75*
G02X95204Y176500I2550*
G01*
X96900Y211800D02*
Y203300D01*
X88400*
Y211800*
X96900*
Y221800D02*
Y213300D01*
X88400*
Y221800*
X96900*
X103700Y149950D02*
G75*
G02X98600I-2550D01*
G01*
G75*
G02X103700I2550*
G01*
X106000Y176650D02*
G75*
G02X100900I-2550D01*
G01*
G75*
G02X106000I2550*
G01*
X106900Y211800D02*
Y203300D01*
X98400*
Y211800*
X106900*
Y221800D02*
Y213300D01*
X98400*
Y221800*
X106900*
X111154Y175174D02*
G75*
G02X106600Y176750I-2004J1576D01*
G01*
G75*
G02X111700I2550*
G01*
G75*
G02X111646Y176226I-2550*
G01*
G75*
G02X114625Y177006I2004J-1576*
G01*
G75*
G02X119675I2525J-356*
G01*
G75*
G02X121625I975J-2357*
G01*
G75*
G02X126500Y177640I2525J-356*
G01*
G75*
G02X131400Y176650I2350J-990*
G01*
G75*
G02X126500Y175660I-2550*
G01*
G75*
G02X123175Y174294I-2350J990*
G01*
G75*
G02X118125I-2525J356*
G01*
G75*
G02X116175I-975J2357*
G01*
G75*
G02X111100Y174650I-2525J356*
G01*
G75*
G02X111154Y175174I2550*
G01*
X112037Y139750D02*
G75*
G02X106937I-2550D01*
G01*
G75*
G02X112037I2550*
G01*
X116900Y211800D02*
Y203300D01*
X108400*
Y211800*
X116900*
Y221800D02*
Y213300D01*
X108400*
Y221800*
X116900*
X126900Y211800D02*
Y203300D01*
X118400*
Y211800*
X126900*
Y221800D02*
Y213300D01*
X118400*
Y221800*
X126900*
X131200Y147750D02*
G75*
G02X126100I-2550D01*
G01*
G75*
G02X131200I2550*
G01*
X133100Y129450D02*
G75*
G02X128000I-2550D01*
G01*
G75*
G02X133100I2550*
G01*
X136600Y176650D02*
G75*
G02X131500I-2550D01*
G01*
G75*
G02X136600I2550*
G01*
X136900Y211800D02*
Y203300D01*
X128400*
Y211800*
X136900*
Y221800D02*
Y213300D01*
X128400*
Y221800*
X136900*
X142500Y176750D02*
G75*
G02X137400I-2550D01*
G01*
G75*
G02X142500I2550*
G01*
X145200Y134550D02*
G75*
G02X150300I2550D01*
G01*
G75*
G02X145200I-2550*
G01*
X146900Y211800D02*
Y203300D01*
X138400*
Y211800*
X146900*
Y221800D02*
Y213300D01*
X138400*
Y221800*
X146900*
X147400Y174650D02*
G75*
G02X142300I-2550D01*
G01*
G75*
G02X147400I2550*
G01*
X153409Y174632D02*
G75*
G02X149300Y176650I-1559J2018D01*
G01*
G75*
G02X154391Y176868I2550*
G01*
G75*
G02X158500Y174850I1559J-2018*
G01*
G75*
G02X153409Y174632I-2550*
G01*
X156900Y211800D02*
Y203300D01*
X148400*
Y211800*
X156900*
Y221800D02*
Y213300D01*
X148400*
Y221800*
X156900*
X164900Y174650D02*
G75*
G02X159800I-2550D01*
G01*
G75*
G02X164900I2550*
G01*
X165100Y126750D02*
G75*
G02X160000I-2550D01*
G01*
G75*
G02X165100I2550*
G01*
X166300Y139700D02*
X157800D01*
Y148200*
X166300*
Y139700*
Y149700D02*
X157800D01*
Y158200*
X166300*
Y149700*
X166900Y211800D02*
Y203300D01*
X158400*
Y211800*
X166900*
Y221800D02*
Y213300D01*
X158400*
Y221800*
X166900*
X176900Y211800D02*
Y203300D01*
X168400*
Y211800*
X176900*
Y221800D02*
Y213300D01*
X168400*
Y221800*
X176900*
X186900Y211800D02*
Y203300D01*
X178400*
Y211800*
X186900*
Y221800D02*
Y213300D01*
X178400*
Y221800*
X186900*
X168650Y126750D02*
G36*
X165100D01*
G75*
G02X160000I-2550*
G01*
X66950*
X74400Y119300*
X98750*
Y123450*
X165350*
X168650Y126750*
G37*
X169050Y129450D02*
G36*
X133100D01*
G75*
G02X128000I-2550*
G01*
X64250*
X66950Y126750*
X160000*
G75*
G02X165100I2550*
G01*
X168650*
X169050Y127150*
Y129450*
G37*
Y134550D02*
G36*
X150300D01*
G75*
G02X145200I-2550*
G01*
X60250*
Y133450*
X64250Y129450*
X128000*
G75*
G02X133100I2550*
G01*
X169050*
Y134550*
G37*
Y138150D02*
G36*
X111472D01*
G75*
G02X107501I-1985J1600*
G01*
X73900*
G75*
G02X68800I-2550*
G01*
X60250*
Y134550*
X145200*
G75*
G02X150300I2550*
G01*
X169050*
Y138150*
G37*
Y143950D02*
G36*
X166300D01*
Y139700*
X157800*
Y143950*
X60250*
Y138150*
X68800*
G75*
G02X73900I2550*
G01*
X107501*
G75*
G02X106937Y139750I1985J1600*
G01*
G75*
G02X112037I2550*
G01*
G75*
G02X111472Y138150I-2550J0*
G01*
X169050*
Y143950*
G37*
Y149950D02*
G36*
X166300D01*
Y149700*
X157800*
Y149950*
X129939*
G75*
G02X131200Y147750I-1289J-2200*
G01*
G75*
G02X126100I-2550*
G01*
G75*
G02X127361Y149950I2550*
G01*
X103700*
G75*
G02X98600I-2550*
G01*
X60250*
Y143950*
X157800*
Y148200*
X166300*
Y143950*
X169050*
Y149950*
G37*
X182350Y175650D02*
G36*
X164696D01*
G75*
G02X164900Y174650I-2346J-1000*
G01*
G75*
G02X159800I-2550*
G01*
G75*
G02X160004Y175650I2550*
G01*
X158371*
G75*
G02X158500Y174850I-2422J-800*
G01*
G75*
G02X153409Y174632I-2550*
G01*
G75*
G02X149504Y175650I-1559J2018*
G01*
X147196*
G75*
G02X147400Y174650I-2346J-1000*
G01*
G75*
G02X142300I-2550*
G01*
G75*
G02X142504Y175650I2550*
G01*
X142250*
G75*
G02X137650I-2300J1100*
G01*
X136396*
G75*
G02X131704I-2346J1000*
G01*
X131196*
G75*
G02X126504I-2346J1000*
G01*
X126496*
G75*
G02X123175Y174294I-2346J1000*
G01*
G75*
G02X118125I-2525J356*
G01*
G75*
G02X116175I-975J2358*
G01*
G75*
G02X111100Y174650I-2525J356*
G01*
G75*
G02X111154Y175174I2577J-3*
G01*
G75*
G02X106849Y175650I-2004J1576*
G01*
X105796*
G75*
G02X101104I-2346J1000*
G01*
X100096*
G75*
G02X95996Y174800I-2346J1000*
G01*
G75*
G02X96000Y174650I-2843J-157*
G01*
G75*
G02X90900I-2550*
G01*
G75*
G02X91104Y175650I2550*
G01*
X88696*
G75*
G02X85186Y174381I-2346J1000*
G01*
G75*
G02X80100Y174625I-2536J269*
G01*
G75*
G02X77195Y174490I-1550J2025*
G01*
G75*
G02X72100Y174650I-2545J160*
G01*
G75*
G02X72304Y175650I2550J0*
G01*
X47050*
X60250Y162450*
Y149950*
X98600*
G75*
G02X103700I2550*
G01*
X127361*
G75*
G02X129939I1289J-2200*
G01*
X157800*
Y158200*
X166300*
Y149950*
X169050*
Y162350*
X182350Y175650*
G37*
X186900Y207550D02*
G36*
Y203300D01*
X178400*
Y207550*
X176900*
Y203300*
X168400*
Y207550*
X166900*
Y203300*
X158400*
Y207550*
X156900*
Y203300*
X148400*
Y207550*
X146900*
Y203300*
X138400*
Y207550*
X136900*
Y203300*
X128400*
Y207550*
X126900*
Y203300*
X118400*
Y207550*
X116900*
Y203300*
X108400*
Y207550*
X106900*
Y203300*
X98400*
Y207550*
X96900*
Y203300*
X88400*
Y207550*
X86900*
Y203300*
X78400*
Y207550*
X76900*
Y203300*
X68400*
Y207550*
X66900*
Y203300*
X58400*
Y207550*
X40785*
X28218Y194982*
Y194482*
X47050Y175650*
X72304*
G75*
G02X76005Y176810I2346J-1000*
G01*
G75*
G02X81100Y176675I2545J-160*
G01*
G75*
G02X83814Y176919I1550J-2025*
G01*
G75*
G02X88900Y176650I2536J-269*
G01*
G75*
G02X88696Y175650I-2550J0*
G01*
X91104*
G75*
G02X95204Y176500I2346J-1000*
G01*
G75*
G02X95200Y176650I2843J157*
G01*
G75*
G02X100300I2550*
G01*
G75*
G02X100096Y175650I-2550*
G01*
X101104*
G75*
G02X100900Y176650I2346J1000*
G01*
G75*
G02X106000I2550*
G01*
G75*
G02X105796Y175650I-2550*
G01*
X106849*
G75*
G02X106600Y176750I2300J1099*
G01*
Y176750*
G75*
G02X111700I2550*
G01*
G75*
G02X111646Y176226I-2577J3*
G01*
G75*
G02X114625Y177006I2004J-1576*
G01*
G75*
G02X119675I2525J-356*
G01*
G75*
G02X121625I975J-2358*
G01*
G75*
G02X126500Y177640I2525J-356*
G01*
G75*
G02X131400Y176650I2350J-990*
G01*
G75*
G02X131196Y175650I-2550*
G01*
X131704*
G75*
G02X131500Y176650I2346J1000*
G01*
G75*
G02X136600I2550*
G01*
G75*
G02X136396Y175650I-2550*
G01*
X137650*
G75*
G02X137400Y176750I2300J1100*
G01*
G75*
G02X142500I2550*
G01*
G75*
G02X142250Y175650I-2550J0*
G01*
X142504*
G75*
G02X147196I2346J-1000*
G01*
X149504*
G75*
G02X149300Y176650I2346J1000*
G01*
G75*
G02X154391Y176868I2550*
G01*
G75*
G02X158371Y175650I1559J-2018*
G01*
X160004*
G75*
G02X164696I2346J-1000*
G01*
X182350*
X208282Y201582*
Y202082*
X202815Y207550*
X186900*
G37*
X126504Y175650D02*
G36*
G75*
G02X126500Y175660I2353J1002D01*
G01*
G75*
G02X126496Y175650I-2357J991*
G01*
X126504*
G37*
X186900Y217550D02*
G36*
Y213300D01*
X178400*
Y217550*
X176900*
Y213300*
X168400*
Y217550*
X166900*
Y213300*
X158400*
Y217550*
X156900*
Y213300*
X148400*
Y217550*
X146900*
Y213300*
X138400*
Y217550*
X136900*
Y213300*
X128400*
Y217550*
X126900*
Y213300*
X118400*
Y217550*
X116900*
Y213300*
X108400*
Y217550*
X106900*
Y213300*
X98400*
Y217550*
X96900*
Y213300*
X88400*
Y217550*
X86900*
Y213300*
X78400*
Y217550*
X76900*
Y213300*
X68400*
Y217550*
X66900*
Y213300*
X58400*
Y217550*
X50785*
X40785Y207550*
X58400*
Y211800*
X66900*
Y207550*
X68400*
Y211800*
X76900*
Y207550*
X78400*
Y211800*
X86900*
Y207550*
X88400*
Y211800*
X96900*
Y207550*
X98400*
Y211800*
X106900*
Y207550*
X108400*
Y211800*
X116900*
Y207550*
X118400*
Y211800*
X126900*
Y207550*
X128400*
Y211800*
X136900*
Y207550*
X138400*
Y211800*
X146900*
Y207550*
X148400*
Y211800*
X156900*
Y207550*
X158400*
Y211800*
X166900*
Y207550*
X168400*
Y211800*
X176900*
Y207550*
X178400*
Y211800*
X186900*
Y207550*
X202815*
X192815Y217550*
X186900*
G37*
X192815D02*
G36*
X171065Y239300D01*
X72535*
X50785Y217550*
X58400*
Y221800*
X66900*
Y217550*
X68400*
Y221800*
X76900*
Y217550*
X78400*
Y221800*
X86900*
Y217550*
X88400*
Y221800*
X96900*
Y217550*
X98400*
Y221800*
X106900*
Y217550*
X108400*
Y221800*
X116900*
Y217550*
X118400*
Y221800*
X126900*
Y217550*
X128400*
Y221800*
X136900*
Y217550*
X138400*
Y221800*
X146900*
Y217550*
X148400*
Y221800*
X156900*
Y217550*
X158400*
Y221800*
X166900*
Y217550*
X168400*
Y221800*
X176900*
Y217550*
X178400*
Y221800*
X186900*
Y217550*
X192815*
G37*
D02*
D19*
X34080Y138828D02*
X30855D01*
X37572Y135335D02*
Y132110D01*
Y142320D02*
Y145545D01*
X41065Y138828D02*
X44290D01*
X134700Y22350D02*
X132200D01*
X136950Y24600D02*
Y27100D01*
X139200Y22350D02*
X141700D01*
X144700D02*
X142200D01*
X146950Y24600D02*
Y27100D01*
X149200Y22350D02*
X151700D01*
X159800Y143950D02*
X157300D01*
X162050Y141700D02*
Y139200D01*
Y146200D02*
Y148700D01*
X164300Y143950D02*
X166800D01*
X170400Y207550D02*
X167900D01*
X170400Y217550D02*
X167900D01*
X172650Y205300D02*
Y202800D01*
Y209800D02*
Y212300D01*
Y215300D02*
Y212800D01*
Y219800D02*
Y222300D01*
X174900Y207550D02*
X177400D01*
X174900Y217550D02*
X177400D01*
D02*
D70*
X136950Y22350D03*
Y32350D03*
Y42350D03*
Y52350D03*
X146950Y22350D03*
Y32350D03*
Y42350D03*
Y52350D03*
D02*
D72*
X62650Y207550D03*
Y217550D03*
X72650Y207550D03*
Y217550D03*
X82650Y207550D03*
Y217550D03*
X92650Y207550D03*
Y217550D03*
X102650Y207550D03*
Y217550D03*
X112650Y207550D03*
Y217550D03*
X122650Y207550D03*
Y217550D03*
X132650Y207550D03*
Y217550D03*
X142650Y207550D03*
Y217550D03*
X152650Y207550D03*
Y217550D03*
X162050Y143950D03*
Y153950D03*
X162650Y207550D03*
Y217550D03*
X172650Y207550D03*
Y217550D03*
X182650Y207550D03*
Y217550D03*
X207650Y64150D03*
Y74150D03*
Y84150D03*
Y94150D03*
Y104150D03*
Y114150D03*
D02*
D77*
X30501Y145899D03*
X37572Y138828D03*
X44643Y131757D03*
X51715Y124685D03*
X58785Y117615D03*
X65857Y110543D03*
X72928Y103472D03*
X79999Y96401D03*
X186537Y29237D03*
X193608Y36308D03*
X200679Y43379D03*
X207750Y50450D03*
D02*
D80*
X38865Y55435D03*
X61139Y33161D03*
D02*
D83*
X31350Y65350D03*
X42550Y162850D03*
X67950Y76150D03*
X69950Y184750D03*
X71150Y72650D03*
X71350Y138150D03*
X74650Y174650D03*
X75450Y68950D03*
X78550Y176650D03*
X80088Y10612D03*
X81250Y62950D03*
X82650Y174650D03*
X86350Y176650D03*
X88150Y33550D03*
X91750Y90950D03*
X91800Y90900D03*
X92750Y26850D03*
X93450Y174650D03*
X95750Y114850D03*
X97050Y44650D03*
X97650Y75750D03*
Y91650D03*
X97750Y176650D03*
X101150Y149950D03*
X101550Y127950D03*
X102150Y110950D03*
X102750Y80650D03*
Y95250D03*
X103250Y44850D03*
X103450Y176650D03*
X105350Y61050D03*
X106350Y98650D03*
X109150Y79650D03*
Y91850D03*
Y176750D03*
X109350Y64750D03*
X109487Y139750D03*
X112750Y96550D03*
X112970Y72350D03*
X113650Y174650D03*
X116250Y91750D03*
X117150Y176650D03*
X117250Y101350D03*
X120150Y111350D03*
X120650Y174650D03*
X123450Y51250D03*
X124150Y176650D03*
X125350Y137850D03*
X127550Y100250D03*
X128650Y147750D03*
X128750Y106350D03*
X128850Y176650D03*
X130350Y54550D03*
X130550Y129450D03*
X132050Y91250D03*
X134050Y176650D03*
X139950Y176750D03*
X142850Y159050D03*
X143150Y63650D03*
X144850Y174650D03*
X147750Y134550D03*
X150850Y118650D03*
X151850Y176650D03*
X154450Y91150D03*
X155650Y79250D03*
X155950Y174850D03*
X156250Y95850D03*
X157050Y64350D03*
X157250Y51350D03*
X162350Y174650D03*
X162550Y126750D03*
X164450Y96950D03*
X169850Y69950D03*
X171450Y87050D03*
X172150Y185850D03*
X177150Y131950D03*
X179850Y78050D03*
X180150Y69450D03*
X182150Y44550D03*
X183150Y38650D03*
X185550Y106150D03*
X185950Y100250D03*
X186350Y52250D03*
X194950Y157050D03*
X195050Y128150D03*
X197050Y92850D03*
X197250Y98550D03*
X211850Y148450D03*
X215150Y123850D03*
X216450Y128650D03*
X222350Y141950D03*
X0Y0D02*
M02*
