G04 EasyPC Gerber Version 21.0.3 Build 4286 *
G04 #@! TF.Part,Single*
G04 #@! TF.FileFunction,Copper,L1,Top *
G04 #@! TF.FilePolarity,Positive *
%FSLAX35Y35*%
%MOIN*%
G04 #@! TA.AperFunction,SMDPad*
%ADD106R,0.01181X0.04724*%
%ADD119R,0.01200X0.02000*%
%ADD121R,0.01600X0.03500*%
%ADD111R,0.01970X0.06100*%
%ADD108R,0.02400X0.02400*%
%ADD116R,0.02600X0.04200*%
%ADD125R,0.03937X0.04291*%
%ADD113R,0.03940X0.04330*%
G04 #@! TA.AperFunction,ComponentPad*
%ADD117R,0.06000X0.06000*%
G04 #@! TA.AperFunction,SMDPad*
%ADD109R,0.06300X0.06300*%
G04 #@! TD.AperFunction*
%ADD96C,0.00500*%
%ADD100C,0.00800*%
%ADD99C,0.01000*%
%ADD104C,0.01500*%
%ADD128C,0.02000*%
%ADD129C,0.03000*%
G04 #@! TA.AperFunction,ViaPad*
%ADD127C,0.03200*%
G04 #@! TA.AperFunction,ComponentPad*
%ADD124C,0.03600*%
G04 #@! TD.AperFunction*
%ADD130C,0.04000*%
G04 #@! TA.AperFunction,WasherPad*
%ADD105C,0.06000*%
G04 #@! TA.AperFunction,SMDPad*
%ADD123O,0.06500X0.01300*%
%ADD107R,0.04724X0.01181*%
%ADD118R,0.02000X0.01200*%
%ADD122R,0.04600X0.01800*%
%ADD112R,0.06100X0.01970*%
%ADD120R,0.05000X0.02200*%
%ADD110R,0.02400X0.02400*%
%ADD126R,0.04291X0.03937*%
%ADD114R,0.04330X0.03940*%
%ADD115R,0.05512X0.04528*%
%AMT83*0 Rectangle Pad at angle 45*21,1,0.06000,0.06000,0,0,45*%
%ADD83T83*%
X0Y0D02*
D02*
D83*
X30501Y145899D03*
X37572Y138828D03*
X44643Y131757D03*
X51715Y124685D03*
X58785Y117615D03*
X65857Y110543D03*
X72928Y103472D03*
X79999Y96401D03*
X186537Y29237D03*
X193608Y36308D03*
X200679Y43379D03*
X207750Y50450D03*
D02*
D96*
X27018Y193782D02*
X3450Y170215D01*
Y162596*
G75*
G02X24350Y161150I10400J-1446*
G01*
G75*
G02X3450Y159704I-10500*
G01*
Y82596*
G75*
G02X24350Y81150I10400J-1446*
G01*
G75*
G02X3450Y79704I-10500*
G01*
Y72385*
X72685Y3150*
X121750*
Y18250*
X135831*
G75*
G02X132700Y22350I1119J4100*
G01*
G75*
G02X141200I4250*
G01*
G75*
G02X138069Y18250I-4250*
G01*
X145831*
G75*
G02X142700Y22350I1119J4100*
G01*
G75*
G02X151200I4250*
G01*
G75*
G02X148069Y18250I-4250*
G01*
X185815*
X240050Y72485*
Y77652*
G75*
G02X219650Y81150I-9900J3498*
G01*
G75*
G02X240050Y84648I10500*
G01*
Y157652*
G75*
G02X219650Y161150I-9900J3498*
G01*
G75*
G02X240050Y164648I10500*
G01*
Y170315*
X209732Y200632*
X170950Y161850*
Y127450*
X164850Y121350*
X135400*
Y118376*
G75*
G02X135700Y117337I-1650J-1039*
G01*
Y113900*
X140400*
Y105000*
X136257*
Y104450*
G75*
G02X135640Y102960I-2107*
G01*
X131440Y98760*
G75*
G02X129950Y98143I-1490J1490*
G01*
X128985*
G75*
G02X127198Y97724I-1436J2107*
G01*
X126487Y97013*
G75*
G02X126085Y96720I-1137J1137*
G01*
G75*
G02X126135Y94553I-1534J-1120*
G01*
G75*
G02X126487Y94287I-786J-1402*
G01*
X131487Y89287*
G75*
G02X131957Y88150I-1137J-1137*
G01*
Y56530*
G75*
G02X132900Y54550I-1607J-1980*
G01*
G75*
G02X127800I-2550*
G01*
G75*
G02X128743Y56530I2550*
G01*
Y87484*
X126319Y89907*
G75*
G02X125981Y89350I-1769J692*
G01*
G75*
G02Y86850I-1431J-1250*
G01*
G75*
G02Y84350I-1431J-1250*
G01*
G75*
G02Y81850I-1431J-1250*
G01*
G75*
G02Y79350I-1431J-1250*
G01*
G75*
G02Y76850I-1431J-1250*
G01*
G75*
G02Y74350I-1431J-1250*
G01*
G75*
G02Y71850I-1431J-1250*
G01*
G75*
G02X124550Y68700I-1431J-1250*
G01*
X119350*
G75*
G02X117919Y71850J1900*
G01*
G75*
G02X117913Y74343I1431J1250*
G01*
X116616*
X115400Y73126*
G75*
G02X114420Y70252I-2429J-776*
G01*
Y40070*
G75*
G02X113996Y39045I-1450*
G01*
X110707Y35756*
G75*
G02X109681Y35331I-1025J1025*
G01*
X108431*
Y28931*
X107789*
Y24000*
X107800*
Y15200*
X102900*
Y20100*
X102865*
Y19130*
X96035*
Y20222*
G75*
G02X95518Y20618I1216J2127*
G01*
X91518Y24618*
G75*
G02X90200Y26850I1232J2232*
G01*
G75*
G02X94031Y29055I2550*
G01*
Y33174*
X90672*
G75*
G02X85600Y33550I-2522J376*
G01*
G75*
G02X86872Y35757I2550*
G01*
G75*
G02X88150Y36389I1278J-975*
G01*
X94031*
Y40631*
X97331*
Y42031*
X97349*
X97273Y42110*
G75*
G02X95591Y46741I-223J2540*
G01*
X93576*
Y56159*
X96000*
Y73806*
G75*
G02X95552Y74300I1650J1944*
G01*
X74851*
X73659Y73108*
G75*
G02X73700Y72650I-2508J-457*
G01*
G75*
G02X68600I-2550*
G01*
G75*
G02X68857Y73767I2550J0*
G01*
G75*
G02X65400Y76150I-907J2383*
G01*
G75*
G02X70500I2550*
G01*
G75*
G02X70243Y75033I-2550J0*
G01*
G75*
G02X71608Y75159I907J-2383*
G01*
X73225Y76775*
G75*
G02X74250Y77200I1025J-1025*
G01*
X95552*
G75*
G02X99839Y77057I2098J-1450*
G01*
X108875*
X108926Y77110*
G75*
G02X107387Y81493I224J2540*
G01*
X105988*
X105293Y80838*
G75*
G02X105300Y80650I-2545J-190*
G01*
G75*
G02X100200I-2550*
G01*
G75*
G02X103088Y83178I2550*
G01*
X104120Y84150*
X90800*
G75*
G02X89775Y84575J1450*
G01*
X81979Y92371*
X79999Y90391*
X73989Y96401*
X79999Y102411*
X86009Y96401*
X84029Y94421*
X91401Y87050*
X93600*
G75*
G02X93575Y87075I1004J1045*
G01*
X92258Y88391*
G75*
G02X89972Y89122I-458J2509*
G01*
G75*
G02X89200Y90950I1778J1828*
G01*
G75*
G02X93578Y92728I2550*
G01*
G75*
G02X94309Y90442I-1778J-1828*
G01*
X95201Y89550*
X96204*
G75*
G02X96200Y93748I1446J2100*
G01*
Y111250*
G75*
G02X96625Y112275I1450*
G01*
X100025Y115675*
G75*
G02X101050Y116100I1025J-1025*
G01*
X101509*
Y121350*
X100350*
Y117650*
X74250*
X58650Y133250*
Y162150*
X27018Y193782*
X18705Y125169D02*
G75*
G02X19125Y126075I1445J-119D01*
G01*
X20600Y127551*
Y130400*
X29400*
Y125500*
X22651*
X22319Y125169*
X23546*
Y118731*
X16754*
Y125169*
X18705*
X24491Y145899D02*
X30501Y151909D01*
X36511Y145899*
X30501Y139889*
X24491Y145899*
X30546Y120600D02*
Y118731D01*
X23754*
Y125169*
X30546*
Y123300*
X47090*
X45704Y124685*
X51715Y130696*
X57725Y124685*
X51715Y118675*
X49625Y120765*
G75*
G02X48979Y120600I-646J1185*
G01*
X30546*
X31562Y138828D02*
X37572Y144838D01*
X43583Y138828*
X37572Y132817*
X31562Y138828*
X36708Y57592D02*
G75*
G02X41021Y53279I2157J-2157D01*
G01*
G75*
G02X36708Y57592I-2157J2157*
G01*
X38633Y131757D02*
X44643Y137767D01*
X50654Y131757*
X44643Y125746*
X38633Y131757*
X52775Y117615D02*
X58785Y123625D01*
X64796Y117615*
X58785Y111604*
X52775Y117615*
X58982Y35318D02*
G75*
G02X63295Y31005I2157J-2157D01*
G01*
G75*
G02X58982Y35318I-2157J2157*
G01*
X59846Y110543D02*
X65857Y116554D01*
X71867Y110543*
X65857Y104533*
X59846Y110543*
X66917Y103472D02*
X72928Y109483D01*
X78938Y103472*
X72928Y97462*
X66917Y103472*
X72900Y68950D02*
G75*
G02X78000I2550D01*
G01*
G75*
G02X72900I-2550*
G01*
X102865Y12130D02*
X96035D01*
Y18570*
X102865*
Y12130*
X138570Y56279D02*
X136425Y58425D01*
G75*
G02X136000Y59450I1025J1025*
G01*
Y74200*
G75*
G02X136425Y75225I1450*
G01*
X137825Y76625*
G75*
G02X138768Y77048I1025J-1025*
G01*
G75*
G02X138919Y79350I1582J1052*
G01*
G75*
G02Y81850I1431J1250*
G01*
G75*
G02Y84350I1431J1250*
G01*
G75*
G02Y86850I1431J1250*
G01*
G75*
G02Y89350I1431J1250*
G01*
G75*
G02Y91850I1431J1250*
G01*
G75*
G02Y94350I1431J1250*
G01*
G75*
G02Y96850I1431J1250*
G01*
G75*
G02X140350Y100000I1431J1250*
G01*
X141646*
G75*
G02X142950Y100500I1304J-1450*
G01*
X149400*
Y109000*
X153732*
Y111907*
X160100*
Y116200*
X168900*
Y111909*
X170444*
Y108829*
X172613Y106661*
G75*
G02X173083Y105524I-1137J-1137*
G01*
Y97496*
X178975*
Y109525*
G75*
G02X179546Y110904I1950J0*
G01*
X184171Y115529*
G75*
G02X185550Y116100I1379J-1379*
G01*
X201575*
G75*
G02X201000Y117850I2375J1750*
G01*
Y119700*
X199167*
G75*
G02X196723Y119543I-1417J2950*
G01*
X186750*
G75*
G02X184291Y120750J3108*
G01*
X182785Y122699*
X177800*
Y131399*
X181943*
Y132249*
X181300*
Y136949*
X183017*
G75*
G02X187083I2033J-2350*
G01*
X188800*
Y132249*
X188158*
Y125911*
X188276Y125757*
X192567*
G75*
G02X191443Y128150I1983J2393*
G01*
Y132249*
X190900*
Y144449*
X192300*
Y152800*
X197200*
Y144449*
X198400*
Y143757*
X213231*
Y145546*
X219669*
Y143600*
X220406*
G75*
G02X224900Y141950I1944J-1650*
G01*
G75*
G02X220128Y140700I-2550*
G01*
X219669*
Y138754*
X213231*
Y140543*
X198400*
Y132249*
X197816*
G75*
G02X197657Y131925I-2867J1200*
G01*
Y129841*
G75*
G02X197161Y125869I-2608J-1691*
G01*
G75*
G02X199167Y125600I589J-3219*
G01*
X201000*
Y130750*
X199550*
Y139550*
X208350*
Y130750*
X206900*
Y119072*
X207572Y118400*
X209142*
X211371Y120629*
G75*
G02X212750Y121200I1379J-1379*
G01*
X215000*
Y121700*
X219900*
Y119900*
X220750*
Y129600*
X219900*
Y136300*
X225000*
Y129600*
X224150*
Y119900*
X225000*
Y113200*
X219900*
Y112900*
X219157*
Y111350*
G75*
G02X218694Y110221I-1607*
G01*
X211900Y103331*
Y99900*
X203500*
Y98400*
X211900*
Y89900*
X203500*
Y88400*
X211900*
Y79900*
X203400*
Y80621*
G75*
G02X203075Y80125I-1350J530*
G01*
X200850Y77900*
G75*
G02X199825Y77475I-1025J1025*
G01*
X199496*
Y77383*
X201625*
G75*
G02X202761Y76912J-1607*
G01*
X203400Y76273*
Y78400*
X211900*
Y69900*
X204233*
Y68400*
X211900*
Y59900*
X203400*
Y62581*
G75*
G02X202613Y63013I350J1569*
G01*
X201600Y64027*
Y59351*
X206120Y54830*
X207750Y56460*
X213760Y50450*
X207750Y44440*
X201740Y50450*
X204070Y52780*
X199125Y57725*
G75*
G02X198700Y58750I1025J1025*
G01*
Y64091*
X198400*
Y49462*
X199576Y48286*
X200679Y49389*
X206689Y43379*
X200679Y37369*
X194669Y43379*
X197525Y46235*
X195925Y47836*
G75*
G02X195500Y48861I1025J1025*
G01*
Y64091*
X192609*
Y60342*
X193575Y59375*
G75*
G02X194000Y58350I-1025J-1025*
G01*
Y41926*
X199618Y36308*
X193608Y30298*
X188157Y35748*
Y33626*
X192547Y29237*
X186537Y23226*
X180526Y29237*
X184943Y33653*
Y38150*
G75*
G02X185413Y39287I1607*
G01*
X188069Y41942*
Y50366*
G75*
G02X183841Y52708I-1719J1884*
G01*
X183249Y53300*
X176233*
Y52616*
X181776Y47072*
G75*
G02X184700Y44550I374J-2522*
G01*
G75*
G02X179600I-2550*
G01*
G75*
G02X179604Y44698I2551J0*
G01*
X174000Y50302*
Y48800*
X169100*
Y57204*
X166091*
Y57800*
X154100*
Y38250*
G75*
G02X153675Y37225I-1450*
G01*
X150735Y34284*
G75*
G02X151200Y32350I-3785J-1933*
G01*
G75*
G02X142700I-4250*
G01*
G75*
G02X148611Y36262I4250*
G01*
X151200Y38851*
Y57643*
X149250*
G75*
G02X148113Y58113J1607*
G01*
X146513Y59713*
G75*
G02X146043Y60850I1137J1137*
G01*
Y68765*
G75*
G02X145550Y68700I-493J1835*
G01*
X140350*
G75*
G02X138900Y69372J1900*
G01*
Y60051*
X142975Y55975*
G75*
G02X143400Y54950I-1025J-1025*
G01*
Y54687*
G75*
G02X151200Y52350I3550J-2337*
G01*
G75*
G02X143400Y50013I-4250*
G01*
Y48251*
X145359Y46291*
G75*
G02X151200Y42350I1591J-3941*
G01*
G75*
G02X142700I-4250*
G01*
G75*
G02X143200Y44350I4250J0*
G01*
X140925Y46625*
G75*
G02X140500Y47650I1025J1025*
G01*
Y50013*
G75*
G02X132700Y52350I-3550J2337*
G01*
G75*
G02X138570Y56279I4250*
G01*
X141200Y32350D02*
G75*
G02X132700I-4250D01*
G01*
G75*
G02X141200I4250*
G01*
Y42350D02*
G75*
G02X132700I-4250D01*
G01*
G75*
G02X141200I4250*
G01*
X183193Y144449D02*
Y144700D01*
X182500*
Y149600*
X191300*
Y144700*
X186908*
Y144449*
X188800*
Y139749*
X181300*
Y144449*
X183193*
X208350Y152950D02*
Y144150D01*
X199550*
Y152950*
X208350*
X215000Y130748D02*
Y131754D01*
X213231*
Y138546*
X219669*
Y131754*
X217900*
Y130748*
G75*
G02X219000Y128650I-1450J-2098*
G01*
G75*
G02X213900I-2550*
G01*
G75*
G02X215000Y130748I2550*
G01*
X232733Y129600D02*
X228400D01*
Y136300*
X233500*
Y132109*
G75*
G02X235750Y133100I2250J-2059*
G01*
G75*
G02Y127000J-3050*
G01*
G75*
G02X232733Y129600J3050*
G01*
X233500Y119900D02*
Y113200D01*
X228400*
Y119900*
X233500*
X235750Y107400D02*
G75*
G02Y113500J3050D01*
G01*
G75*
G02Y107400J-3050*
G01*
X121750Y15350D02*
G36*
X107800D01*
Y15200*
X102900*
Y15350*
X102865*
Y12130*
X96035*
Y15350*
X60485*
X72435Y3400*
X121750*
Y15350*
G37*
X94031Y33161D02*
G36*
X90670D01*
G75*
G02X85630I-2520J389*
G01*
X64189*
G75*
G02X63295Y31005I-3050*
G01*
G75*
G02X58089Y33161I-2157J2157*
G01*
X42674*
X60485Y15350*
X96035*
Y18570*
X102865*
Y15350*
X102900*
Y20100*
X102865*
Y19130*
X96035*
Y20222*
G75*
G02X95518Y20618I1220J2133*
G01*
X91518Y24618*
G75*
G02X90200Y26850I1232J2232*
G01*
G75*
G02X94031Y29055I2550*
G01*
Y33161*
G37*
X200726D02*
G36*
X196472D01*
X193608Y30298*
X190744Y33161*
X188622*
X192547Y29237*
X186537Y23226*
X180526Y29237*
X184451Y33161*
X151122*
G75*
G02X151200Y32350I-4178J-813*
G01*
G75*
G02X142700I-4250*
G01*
G75*
G02X142778Y33161I4250J-1*
G01*
X141122*
G75*
G02X141200Y32350I-4172J-812*
G01*
G75*
G02X132700I-4250*
G01*
G75*
G02X132778Y33161I4250J-1*
G01*
X108431*
Y28931*
X107789*
Y24000*
X107800*
Y15350*
X121750*
Y18250*
X135831*
G75*
G02X132700Y22349I1119J4099*
G01*
G75*
G02Y22350I5013J0*
G01*
G75*
G02X141200I4250*
G01*
G75*
G02X138069Y18250I-4250*
G01*
X145831*
G75*
G02X142700Y22349I1119J4099*
G01*
G75*
G02Y22350I5013J0*
G01*
G75*
G02X151200I4250*
G01*
G75*
G02X148069Y18250I-4250*
G01*
X185815*
X200726Y33161*
G37*
X95949Y42350D02*
G36*
X33485D01*
X42674Y33161*
X58089*
G75*
G02X58982Y35318I3050*
G01*
G75*
G02X64189Y33161I2157J-2157*
G01*
X85630*
G75*
G02X85600Y33550I2520J389*
G01*
G75*
G02X86872Y35757I2551J0*
G01*
G75*
G02X88150Y36389I1277J-974*
G01*
X94031*
Y40631*
X97331*
Y42031*
X97349*
X97273Y42110*
G75*
G02X95949Y42350I-223J2540*
G01*
G37*
X94031Y33161D02*
G36*
Y33174D01*
X90672*
G75*
G02X90670Y33161I-2525J388*
G01*
X94031*
G37*
X151200Y42350D02*
G36*
X151199D01*
G75*
G02X142700I-4250J1*
G01*
X141200*
G75*
G02X132700I-4250*
G01*
X114420*
Y40070*
G75*
G02X113996Y39045I-1453J1*
G01*
X110707Y35756*
G75*
G02X109681Y35331I-1026J1028*
G01*
X108431*
Y33161*
X132778*
G75*
G02X141122I4172J-811*
G01*
X142778*
G75*
G02X148611Y36262I4172J-812*
G01*
X151200Y38851*
Y42350*
G37*
X188069D02*
G36*
X183439D01*
G75*
G02X180861I-1289J2200*
G01*
X154100*
Y38250*
G75*
G02X153675Y37225I-1453J1*
G01*
X150735Y34284*
G75*
G02X151122Y33161I-3791J-1935*
G01*
X184451*
X184943Y33653*
Y38150*
G75*
G02X185413Y39287I1609J-1*
G01*
X188069Y41942*
Y42350*
G37*
X209915D02*
G36*
X205660D01*
X200679Y37369*
X195697Y42350*
X194000*
Y41926*
X199618Y36308*
X196472Y33161*
X200726*
X209915Y42350*
G37*
X190744Y33161D02*
G36*
X188157Y35748D01*
Y33626*
X188622Y33161*
X190744*
G37*
X93576Y55435D02*
G36*
X41915D01*
G75*
G02X41021Y53279I-3050*
G01*
G75*
G02X35815Y55435I-2157J2157*
G01*
X20400*
X33485Y42350*
X95949*
G75*
G02X94500Y44650I1101J2300*
G01*
G75*
G02X95591Y46741I2550*
G01*
X93576*
Y55435*
G37*
X142700Y42350D02*
G36*
Y42350D01*
G75*
G02X143200Y44350I4250*
G01*
X140925Y46625*
G75*
G02X140500Y47650I1028J1026*
G01*
Y50013*
G75*
G02X132700Y52350I-3550J2337*
G01*
G75*
G02X134028Y55435I4250*
G01*
X132741*
G75*
G02X132900Y54550I-2392J-885*
G01*
G75*
G02X127800I-2550*
G01*
G75*
G02X127959Y55435I2551*
G01*
X114420*
Y42350*
X132700*
G75*
G02X141200I4250*
G01*
X142700*
G37*
X144028Y55435D02*
G36*
X143316D01*
G75*
G02X143400Y54950I-1369J-486*
G01*
Y54687*
G75*
G02X144028Y55435I3550J-2337*
G01*
G37*
X169100D02*
G36*
X154100D01*
Y42350*
X180861*
G75*
G02X179600Y44550I1289J2200*
G01*
G75*
G02X179604Y44698I2788J-7*
G01*
X174000Y50302*
Y48800*
X169100*
Y55435*
G37*
X151200D02*
G36*
X149872D01*
G75*
G02X151199Y52350I-2922J-3086*
G01*
Y52349*
G75*
G02X143400Y50013I-4250J2*
G01*
Y48251*
X145359Y46291*
G75*
G02X151199Y42351I1591J-3941*
G01*
G75*
G02Y42350I-4511J0*
G01*
X151200*
Y55435*
G37*
X188069Y42350D02*
G36*
Y50366D01*
G75*
G02X183800Y52250I-1719J1884*
G01*
G75*
G02X183841Y52708I2551*
G01*
X183249Y53300*
X176233*
Y52616*
X181776Y47072*
G75*
G02X184700Y44550I374J-2522*
G01*
G75*
G02X183439Y42350I-2550*
G01*
X188069*
G37*
X223000Y55435D02*
G36*
X208775D01*
X213760Y50450*
X207750Y44440*
X201740Y50450*
X204070Y52780*
X201414Y55435*
X198400*
Y49462*
X199576Y48286*
X200679Y49389*
X206689Y43379*
X205660Y42350*
X209915*
X223000Y55435*
G37*
X195697Y42350D02*
G36*
X194669Y43379D01*
X197525Y46235*
X195925Y47836*
G75*
G02X195500Y48861I1028J1026*
G01*
Y55435*
X194000*
Y42350*
X195697*
G37*
X206725Y55435D02*
G36*
X205515D01*
X206120Y54830*
X206725Y55435*
G37*
X96000Y68950D02*
G36*
X78000D01*
G75*
G02X72900I-2550*
G01*
X6885*
X20400Y55435*
X35815*
G75*
G02X36708Y57592I3050*
G01*
G75*
G02X41915Y55435I2157J-2157*
G01*
X93576*
Y56159*
X96000*
Y68950*
G37*
X127959Y55435D02*
G36*
G75*
G02X128743Y56530I2392J-886D01*
G01*
Y68950*
X125492*
G75*
G02X124550Y68700I-942J1650*
G01*
X119350*
G75*
G02X118408Y68950J1900*
G01*
X114420*
Y55435*
X127959*
G37*
X134028D02*
G36*
G75*
G02X138570Y56278I2922J-3085D01*
G01*
X136425Y58425*
G75*
G02X136000Y59450I1028J1026*
G01*
Y68950*
X131957*
Y56530*
G75*
G02X132741Y55435I-1608J-1980*
G01*
X134028*
G37*
X139407Y68950D02*
G36*
X138900D01*
Y60051*
X142975Y55975*
G75*
G02X143316Y55435I-1028J-1027*
G01*
X144028*
G75*
G02X149872I2922J-3086*
G01*
X151200*
Y57643*
X149250*
G75*
G02X148113Y58113I1J1609*
G01*
X146513Y59713*
G75*
G02X146043Y60850I1138J1137*
G01*
Y68765*
G75*
G02X145550Y68700I-490J1815*
G01*
X140350*
G75*
G02X139407Y68950I-1J1898*
G01*
G37*
X169100Y55435D02*
G36*
Y57204D01*
X166091*
Y57800*
X154100*
Y55435*
X169100*
G37*
X195500D02*
G36*
Y64091D01*
X192609*
Y60342*
X193575Y59375*
G75*
G02X194000Y58350I-1028J-1026*
G01*
Y55435*
X195500*
G37*
X236515Y68950D02*
G36*
X204233D01*
Y68400*
X211900*
Y59900*
X203400*
Y62581*
G75*
G02X202613Y63013I352J1572*
G01*
X201600Y64027*
Y59351*
X205515Y55435*
X206725*
X207750Y56460*
X208775Y55435*
X223000*
X236515Y68950*
G37*
X201414Y55435D02*
G36*
X199125Y57725D01*
G75*
G02X198700Y58750I1028J1026*
G01*
Y64091*
X198400*
Y55435*
X201414*
G37*
X96200Y103472D02*
G36*
X78938D01*
X72928Y97462*
X66917Y103472*
X3700*
Y83838*
G75*
G02X24350Y81150I10150J-2689*
G01*
G75*
G02X3700Y78462I-10500J0*
G01*
Y72135*
X6885Y68950*
X72900*
G75*
G02X78000I2550*
G01*
X96000*
Y73806*
G75*
G02X95552Y74300I1638J1934*
G01*
X74851*
X73659Y73108*
G75*
G02X73700Y72653I-2485J-455*
G01*
G75*
G02Y72650I-2589J-1*
G01*
G75*
G02X68600I-2550*
G01*
G75*
G02X68857Y73767I2556J-1*
G01*
G75*
G02X65400Y76150I-907J2383*
G01*
G75*
G02X70500I2550*
G01*
G75*
G02X70243Y75033I-2556J1*
G01*
G75*
G02X71608Y75159I907J-2382*
G01*
X73225Y76775*
G75*
G02X74250Y77200I1026J-1028*
G01*
X95552*
G75*
G02X99839Y77057I2098J-1450*
G01*
X108875*
X108926Y77110*
G75*
G02X106600Y79650I224J2540*
G01*
G75*
G02X107387Y81493I2550*
G01*
X105988*
X105293Y80838*
G75*
G02X105300Y80650I-2786J-199*
G01*
G75*
G02X100200I-2550*
G01*
G75*
G02X103088Y83178I2550*
G01*
X104120Y84150*
X90800*
G75*
G02X89775Y84575I1J1453*
G01*
X81979Y92371*
X79999Y90391*
X73989Y96401*
X79999Y102411*
X86009Y96401*
X84029Y94421*
X91401Y87050*
X93600*
G75*
G02X93575Y87075I769J806*
G01*
X92258Y88391*
G75*
G02X89972Y89122I-458J2507*
G01*
G75*
G02X89200Y90950I1777J1828*
G01*
Y90950*
G75*
G02X93578Y92728I2550*
G01*
G75*
G02X94350Y90900I-1777J-1828*
G01*
G75*
G02X94309Y90442I-2550J-1*
G01*
X95201Y89550*
X96204*
G75*
G02X95100Y91650I1446J2100*
G01*
G75*
G02X96200Y93748I2550*
G01*
Y103472*
G37*
X118408Y68950D02*
G36*
G75*
G02X117450Y70600I942J1650D01*
G01*
G75*
G02X117919Y71850I1900*
G01*
G75*
G02X117450Y73100I1431J1250*
G01*
G75*
G02X117913Y74343I1900*
G01*
X116616*
X115400Y73126*
G75*
G02X115520Y72350I-2429J-776*
G01*
G75*
G02X114420Y70252I-2550*
G01*
Y68950*
X118408*
G37*
X128743D02*
G36*
Y87484D01*
X126319Y89907*
G75*
G02X125981Y89350I-1765J689*
G01*
G75*
G02X126450Y88100I-1432J-1250*
G01*
G75*
G02X125981Y86850I-1901*
G01*
G75*
G02X126450Y85600I-1432J-1250*
G01*
G75*
G02X125981Y84350I-1901*
G01*
G75*
G02X126450Y83100I-1432J-1250*
G01*
G75*
G02X125981Y81850I-1901*
G01*
G75*
G02X126450Y80600I-1432J-1250*
G01*
G75*
G02X125981Y79350I-1901*
G01*
G75*
G02X126450Y78100I-1432J-1250*
G01*
G75*
G02X125981Y76850I-1901*
G01*
G75*
G02X126450Y75600I-1432J-1250*
G01*
G75*
G02X125981Y74350I-1901*
G01*
G75*
G02X126450Y73100I-1432J-1250*
G01*
G75*
G02X125981Y71850I-1901*
G01*
G75*
G02X126450Y70600I-1431J-1250*
G01*
G75*
G02X125492Y68950I-1900*
G01*
X128743*
G37*
X149400Y103472D02*
G36*
X136017D01*
G75*
G02X135640Y102960I-1870J980*
G01*
X131440Y98760*
G75*
G02X129950Y98143I-1491J1493*
G01*
X128985*
G75*
G02X127198Y97724I-1435J2107*
G01*
X126487Y97013*
G75*
G02X126085Y96720I-1135J1134*
G01*
G75*
G02X126450Y95600I-1534J-1120*
G01*
G75*
G02X126135Y94553I-1900J0*
G01*
G75*
G02X126487Y94287I-785J-1400*
G01*
X131487Y89287*
G75*
G02X131957Y88150I-1138J-1137*
G01*
Y68950*
X136000*
Y74200*
G75*
G02X136425Y75225I1453J-1*
G01*
X137825Y76625*
G75*
G02X138768Y77048I1026J-1026*
G01*
G75*
G02X138450Y78100I1581J1052*
G01*
G75*
G02X138919Y79350I1900J0*
G01*
G75*
G02X138450Y80600I1430J1250*
G01*
G75*
G02X138919Y81850I1900*
G01*
G75*
G02X138450Y83100I1430J1250*
G01*
G75*
G02X138919Y84350I1900*
G01*
G75*
G02X138450Y85600I1430J1250*
G01*
G75*
G02X138919Y86850I1900*
G01*
G75*
G02X138450Y88100I1430J1250*
G01*
G75*
G02X138919Y89350I1900*
G01*
G75*
G02X138450Y90600I1430J1250*
G01*
G75*
G02X138919Y91850I1900*
G01*
G75*
G02X138450Y93100I1430J1250*
G01*
G75*
G02X138919Y94350I1900*
G01*
G75*
G02X138450Y95600I1430J1250*
G01*
G75*
G02X138919Y96850I1900*
G01*
G75*
G02X138450Y98100I1431J1250*
G01*
G75*
G02X140350Y100000I1900*
G01*
X141646*
G75*
G02X142950Y100500I1303J-1447*
G01*
X149400*
Y103472*
G37*
X139407Y68950D02*
G36*
G75*
G02X138900Y69372I942J1648D01*
G01*
Y68950*
X139407*
G37*
X178975Y103472D02*
G36*
X173083D01*
Y97496*
X178975*
Y103472*
G37*
X239800Y85289D02*
G36*
Y103472D01*
X212039*
X211900Y103331*
Y99900*
X203500*
Y98400*
X211900*
Y89900*
X203500*
Y88400*
X211900*
Y79900*
X203400*
Y80621*
G75*
G02X203075Y80125I-1341J524*
G01*
X200850Y77900*
G75*
G02X199825Y77475I-1026J1028*
G01*
X199496*
Y77383*
X201625*
G75*
G02X202761Y76912I-1J-1609*
G01*
X203400Y76273*
Y78400*
X211900*
Y69900*
X204233*
Y68950*
X236515*
X239800Y72235*
Y77011*
G75*
G02X219650Y81150I-9650J4139*
G01*
G75*
G02X239800Y85289I10500*
G01*
G37*
X96200Y110543D02*
G36*
X71867D01*
X65857Y104533*
X59846Y110543*
X3700*
Y103472*
X66917*
X72928Y109483*
X78938Y103472*
X96200*
Y110543*
G37*
X149400Y103472D02*
G36*
Y109000D01*
X153732*
Y110543*
X140400*
Y105000*
X136257*
Y104450*
G75*
G02X136017Y103472I-2110J1*
G01*
X149400*
G37*
X179262Y110543D02*
G36*
X170444D01*
Y108829*
X172613Y106661*
G75*
G02X173083Y105524I-1138J-1137*
G01*
Y103472*
X178975*
Y109525*
G75*
G02X179262Y110543I1950J0*
G01*
G37*
X218941D02*
G36*
G75*
G02X218694Y110221I-1389J806D01*
G01*
X212039Y103472*
X239800*
Y110543*
X238798*
G75*
G02X238800Y110450I-3049J-98*
G01*
G75*
G02X235750Y107400I-3050*
G01*
G75*
G02X232700Y110450J3050*
G01*
G75*
G02X232702Y110543I3050J-5*
G01*
X218941*
G37*
X96200D02*
G36*
Y111250D01*
G75*
G02X96625Y112275I1453J-1*
G01*
X100025Y115675*
G75*
G02X101050Y116100I1026J-1028*
G01*
X101509*
Y117615*
X64796*
X58785Y111604*
X52775Y117615*
X3700*
Y110543*
X59846*
X65857Y116554*
X71867Y110543*
X96200*
G37*
X201009Y117615D02*
G36*
X135680D01*
G75*
G02X135700Y117337I-1929J-276*
G01*
Y113900*
X140400*
Y110543*
X153732*
Y111907*
X160100*
Y116200*
X168900*
Y111909*
X170444*
Y110543*
X179262*
G75*
G02X179546Y110904I1662J-1018*
G01*
X184171Y115529*
G75*
G02X185550Y116100I1379J-1378*
G01*
X201575*
G75*
G02X201009Y117615I2378J1751*
G01*
G37*
X233500D02*
G36*
Y113200D01*
X228400*
Y117615*
X225000*
Y113200*
X219900*
Y112900*
X219157*
Y111350*
Y111350*
G75*
G02X218941Y110543I-1606*
G01*
X232702*
G75*
G02X235750Y113500I3048J-93*
G01*
G75*
G02X238798Y110543J-3050*
G01*
X239800*
Y117615*
X233500*
G37*
X67334Y124566D02*
G36*
X57605D01*
X51715Y118675*
X49625Y120765*
G75*
G02X48979Y120600I-645J1183*
G01*
X30546*
Y118731*
X23754*
Y124566*
X23546*
Y118731*
X16754*
Y124566*
X3700*
Y117615*
X52775*
X58785Y123625*
X64796Y117615*
X101509*
Y121350*
X100350*
Y117650*
X74250*
X67334Y124566*
G37*
X45824D02*
G36*
X30546D01*
Y123300*
X47090*
X45824Y124566*
G37*
X201009Y117615D02*
G36*
G75*
G02X201000Y117850I2944J236D01*
G01*
Y119700*
X199167*
G75*
G02X196723Y119543I-1417J2949*
G01*
X186750*
G75*
G02X184291Y120750J3107*
G01*
X182785Y122699*
X177800*
Y124566*
X168066*
X164850Y121350*
X135400*
Y118376*
G75*
G02X135680Y117615I-1647J-1039*
G01*
X201009*
G37*
X220750Y124566D02*
G36*
X206900D01*
Y119072*
X207572Y118400*
X209142*
X211371Y120629*
G75*
G02X212750Y121200I1379J-1378*
G01*
X215000*
Y121700*
X219900*
Y119900*
X220750*
Y124566*
G37*
X225000Y117615D02*
G36*
X228400D01*
Y119900*
X233500*
Y117615*
X239800*
Y124566*
X224150*
Y119900*
X225000*
Y117615*
G37*
X60143Y131757D02*
G36*
X50654D01*
X44643Y125746*
X38633Y131757*
X3700*
Y124566*
X16754*
Y125169*
X18705*
G75*
G02X19125Y126075I1447J-120*
G01*
X20600Y127551*
Y130400*
X29400*
Y125500*
X22651*
X22319Y125169*
X23546*
Y124566*
X23754*
Y125169*
X30546*
Y124566*
X45824*
X45704Y124685*
X51715Y130696*
X57725Y124685*
X57605Y124566*
X67334*
X60143Y131757*
G37*
X177800Y124566D02*
G36*
Y131399D01*
X181943*
Y131757*
X170950*
Y127450*
X168066Y124566*
X177800*
G37*
X191443Y131757D02*
G36*
X188158D01*
Y125911*
X188276Y125757*
X192567*
G75*
G02X191443Y128150I1985J2393*
G01*
Y131757*
G37*
X199550D02*
G36*
X197657D01*
Y129841*
G75*
G02X198157Y128150I-2608J-1691*
G01*
G75*
G02X197161Y125869I-3107*
G01*
G75*
G02X199167Y125600I589J-3220*
G01*
X201000*
Y130750*
X199550*
Y131757*
G37*
X219900D02*
G36*
X219669D01*
Y131754*
X217900*
Y130748*
G75*
G02X219000Y128650I-1450J-2098*
G01*
G75*
G02X213900I-2550*
G01*
G75*
G02X215000Y130748I2550J0*
G01*
Y131754*
X213231*
Y131757*
X208350*
Y130750*
X206900*
Y124566*
X220750*
Y129600*
X219900*
Y131757*
G37*
X238278D02*
G36*
G75*
G02X238800Y130050I-2528J-1706D01*
G01*
G75*
G02X235750Y127000I-3050*
G01*
G75*
G02X232733Y129600J3050*
G01*
X228400*
Y131757*
X225000*
Y129600*
X224150*
Y124566*
X239800*
Y131757*
X238278*
G37*
X58650Y138828D02*
G36*
X43583D01*
X37572Y132817*
X31562Y138828*
X3700*
Y131757*
X38633*
X44643Y137767*
X50654Y131757*
X60143*
X58650Y133250*
Y138828*
G37*
X190900D02*
G36*
X170950D01*
Y131757*
X181943*
Y132249*
X181300*
Y136949*
X183017*
G75*
G02X187083I2033J-2350*
G01*
X188800*
Y132249*
X188158*
Y131757*
X191443*
Y132249*
X190900*
Y138828*
G37*
X199550D02*
G36*
X198400D01*
Y132249*
X197816*
G75*
G02X197657Y131925I-2888J1210*
G01*
Y131757*
X199550*
Y138828*
G37*
X225000Y131757D02*
G36*
X228400D01*
Y136300*
X233500*
Y132109*
G75*
G02X235750Y133100I2250J-2059*
G01*
G75*
G02X238278Y131757J-3050*
G01*
X239800*
Y138828*
X219669*
Y138754*
X213231*
Y138828*
X208350*
Y131757*
X213231*
Y138546*
X219669*
Y131757*
X219900*
Y136300*
X225000*
Y131757*
G37*
X58650Y145899D02*
G36*
X36511D01*
X30501Y139889*
X24491Y145899*
X3700*
Y138828*
X31562*
X37572Y144838*
X43583Y138828*
X58650*
Y145899*
G37*
X190900Y138828D02*
G36*
Y144449D01*
X192300*
Y145899*
X191300*
Y144700*
X186908*
Y144449*
X188800*
Y139749*
X181300*
Y144449*
X183193*
Y144700*
X182500*
Y145899*
X170950*
Y138828*
X190900*
G37*
X219669D02*
G36*
X239800D01*
Y145899*
X208350*
Y144150*
X199550*
Y145899*
X197200*
Y144449*
X198400*
Y143757*
X213231*
Y145546*
X219669*
Y143600*
X220406*
G75*
G02X224900Y141950I1944J-1650*
G01*
G75*
G02X220128Y140700I-2550J0*
G01*
X219669*
Y138828*
G37*
X213231D02*
G36*
Y140543D01*
X198400*
Y138828*
X199550*
Y139550*
X208350*
Y138828*
X213231*
G37*
X58650Y145899D02*
G36*
Y162150D01*
X27018Y193782*
X3700Y170465*
Y163838*
G75*
G02X24350Y161150I10150J-2689*
G01*
G75*
G02X3700Y158462I-10500J0*
G01*
Y145899*
X24491*
X30501Y151909*
X36511Y145899*
X58650*
G37*
X197200D02*
G36*
X199550D01*
Y152950*
X208350*
Y145899*
X239800*
Y157011*
G75*
G02X219650Y161150I-9650J4139*
G01*
G75*
G02X239800Y165289I10500*
G01*
Y170565*
X209982Y200382*
X209482*
X170950Y161850*
Y145899*
X182500*
Y149600*
X191300*
Y145899*
X192300*
Y152800*
X197200*
Y145899*
G37*
X27918Y194682D02*
X60150Y162450D01*
Y133550*
X74850Y118850*
X98750*
Y123450*
X131600*
Y126650*
G75*
G02X131698Y127173I1450J0*
G01*
G75*
G02X128600Y131093I-1148J2277*
G01*
Y131750*
G75*
G02X129171Y133129I1950J0*
G01*
X130646Y134603*
G75*
G02X130900Y135218I2205J-553*
G01*
Y140150*
G75*
G02X131471Y141529I1950J0*
G01*
X134171Y144229*
G75*
G02X134207Y144264I1383J-1378*
G01*
X130650*
G75*
G02X129548Y144701J1607*
G01*
X128994Y145223*
G75*
G02X126100Y147750I-344J2527*
G01*
G75*
G02X131200I2550*
G01*
G75*
G02X131193Y147568I-2552J2*
G01*
X131288Y147479*
X136942*
Y157554*
X144166*
Y155195*
X145600*
Y159900*
X146600*
Y160350*
G75*
G02X147025Y161375I1450*
G01*
X159841Y174192*
G75*
G02X160900Y176748I2509J458*
G01*
Y178600*
X157400*
Y176948*
G75*
G02X155492Y172341I-1450J-2098*
G01*
X145516Y162365*
G75*
G02X144491Y161941I-1025J1025*
G01*
X134718*
Y159778*
X101509*
Y161783*
X90191*
G75*
G02X89050Y162258J1607*
G01*
X81250Y170118*
G75*
G02X80783Y171250I1141J1132*
G01*
Y172913*
G75*
G02X80157Y174112I1867J1737*
G01*
Y170320*
X89616Y160862*
X98541*
G75*
G02X99677Y160391J-1607*
G01*
X101287Y158782*
G75*
G02X101757Y157645I-1137J-1137*
G01*
Y155255*
G75*
G02X101287Y154118I-1607*
G01*
X100281Y153113*
G75*
G02X100523Y152913I-896J-1335*
G01*
X100945Y152492*
G75*
G02X101455Y147419I205J-2542*
G01*
X100850Y146813*
G75*
G02X99713Y146343I-1137J1137*
G01*
X99285*
Y145557*
X105750*
G75*
G02X106951Y145019J-1607*
G01*
X109372Y142297*
G75*
G02X112037Y139750I115J-2547*
G01*
G75*
G02X107350Y138358I-2550*
G01*
X99285*
Y124346*
X97123*
Y122873*
G75*
G02X96698Y121848I-1450*
G01*
X95075Y120225*
G75*
G02X94050Y119800I-1025J1025*
G01*
X85050*
G75*
G02X84025Y120225J1450*
G01*
X82525Y121725*
G75*
G02X82455Y121800I1024J1024*
G01*
X81100*
Y122300*
X79950*
G75*
G02X78571Y122871I0J1950*
G01*
X74492Y126950*
X66950*
Y135750*
X68400*
Y136433*
G75*
G02X68634Y139677I2950J1417*
G01*
G75*
G02X69437Y140609I2716J-1527*
G01*
X72630Y143802*
Y146265*
X75085*
X77760Y148940*
G75*
G02X79250Y149557I1490J-1490*
G01*
X86750*
G75*
G02X88287Y148891J-2107*
G01*
X88683Y148470*
X91103Y150935*
G75*
G02X92061Y151405I1147J-1126*
G01*
Y154264*
X86486*
G75*
G02X85461Y154689J1450*
G01*
X73625Y166525*
G75*
G02X73200Y167550I1025J1025*
G01*
Y172552*
G75*
G02X73043Y176630I1450J2098*
G01*
Y178250*
G75*
G02X73564Y179435I1607*
G01*
X73700Y179560*
Y184700*
X87400*
Y178974*
G75*
G02X87800Y174552I-1050J-2324*
G01*
Y172751*
X91851Y168700*
X94227*
X92313Y170613*
G75*
G02X91843Y171750I1137J1137*
G01*
Y172670*
G75*
G02X91743Y176544I1607J1980*
G01*
Y178750*
G75*
G02X92250Y179923I1607J0*
G01*
X92900Y180531*
Y184600*
X106600*
Y182073*
X109384Y179289*
G75*
G02X111646Y176226I-235J-2539*
G01*
G75*
G02X112700Y177017I2005J-1576*
G01*
Y178700*
X112100*
Y184700*
X125800*
Y178700*
X125667*
G75*
G02X126500Y177640I-1517J-2050*
G01*
G75*
G02X129308Y179159I2350J-990*
G01*
X131300Y181151*
Y184600*
X145000*
Y181601*
X145875Y180725*
G75*
G02X146300Y179700I-1025J-1025*
G01*
Y176748*
G75*
G02X147362Y174213I-1450J-2097*
G01*
X149341Y176192*
G75*
G02X150243Y178630I2509J458*
G01*
Y180550*
G75*
G02X150630Y181596I1607*
G01*
X150700Y181678*
Y184600*
X164400*
Y178600*
X163800*
Y176748*
G75*
G02X161892Y172141I-1450J-2098*
G01*
X149751Y160000*
X154200*
Y151258*
X157307*
X157800Y151751*
Y158200*
X166300*
Y149700*
X159851*
X158933Y148783*
G75*
G02X157908Y148358I-1025J1025*
G01*
X144166*
Y144900*
X145800*
Y145400*
X154300*
Y136600*
X149267*
G75*
G02X150300Y134550I-1517J-2050*
G01*
G75*
G02X145726Y133000I-2550*
G01*
G75*
G02X144983Y133445I424J1551*
G01*
X144166Y134307*
Y124346*
X136942*
Y126705*
X135400*
Y123450*
X164650*
X169150Y127950*
Y162450*
X188850Y182150*
X188950*
X208582Y201782*
X170815Y239550*
X72785*
X27918Y194682*
X66900Y211800D02*
Y203300D01*
X58400*
Y211800*
X66900*
Y221800D02*
Y213300D01*
X58400*
Y221800*
X66900*
X72400Y203300D02*
X68400D01*
Y211800*
X76043*
Y212484*
X75227Y213300*
X68400*
Y221800*
X76900*
Y216173*
X78400Y214673*
Y221800*
X86900*
Y215450*
X88400Y213950*
Y221800*
X96900*
Y215751*
X98400Y214251*
Y221800*
X106900*
Y215351*
X108400Y213851*
Y221800*
X116900*
Y215351*
X118375Y213875*
G75*
G02X118400Y213850I-1020J-1029*
G01*
Y221800*
X126900*
Y215351*
X128400Y213851*
Y221800*
X136900*
Y216273*
X138400Y214773*
Y221800*
X146900*
Y215450*
X148360Y213990*
G75*
G02X148400Y213950I-1012J-1042*
G01*
Y221800*
X156900*
Y215351*
X158375Y213875*
G75*
G02X158400Y213850I-1020J-1029*
G01*
Y221800*
X166900*
Y213300*
X164100*
Y211800*
X166900*
Y203300*
X163957*
Y191100*
X164400*
Y185100*
X150700*
Y191100*
X151143*
Y203300*
X148800*
Y192950*
G75*
G02X148360Y191910I-1450*
G01*
X145000Y188550*
Y185100*
X131300*
Y190439*
G75*
G02X130943Y191450I1250J1011*
G01*
Y203300*
X129100*
Y192550*
G75*
G02X128675Y191525I-1450*
G01*
X125800Y188649*
Y185200*
X112100*
Y188749*
X111425Y189425*
G75*
G02X111000Y190450I1025J1025*
G01*
Y203300*
X108900*
Y191250*
G75*
G02X108475Y190225I-1450*
G01*
X106600Y188349*
Y185100*
X92900*
Y188227*
X91613Y189513*
G75*
G02X91143Y190650I1137J1137*
G01*
Y203300*
X88900*
Y191800*
G75*
G02X88460Y190760I-1450*
G01*
X87400Y189700*
Y185200*
X73700*
Y187999*
X72825Y188875*
G75*
G02X72400Y189900I1025J1025*
G01*
Y203300*
X165100Y126750D02*
G75*
G02X160000I-2550D01*
G01*
G75*
G02X165100I2550*
G01*
X166300Y139700D02*
X157800D01*
Y148200*
X166300*
Y139700*
X176900Y211800D02*
Y203300D01*
X168400*
Y211800*
X176900*
Y221800D02*
Y213300D01*
X168400*
Y221800*
X176900*
X186900Y211800D02*
Y203300D01*
X178400*
Y211800*
X186900*
Y221800D02*
Y213300D01*
X178400*
Y221800*
X186900*
X98750Y119100D02*
G36*
Y123450D01*
X131600*
Y126650*
G75*
G02X131604Y126750I1461J-2*
G01*
X99285*
Y124346*
X97123*
Y122873*
G75*
G02X96698Y121848I-1453J1*
G01*
X95075Y120225*
G75*
G02X94050Y119800I-1026J1028*
G01*
X85050*
G75*
G02X84025Y120225I1J1453*
G01*
X82525Y121725*
G75*
G02X82455Y121800I952J957*
G01*
X81100*
Y122300*
X79950*
G75*
G02X78571Y122871J1950*
G01*
X74692Y126750*
X66950*
X74600Y119100*
X98750*
G37*
X167950Y126750D02*
G36*
X165100D01*
G75*
G02X160000I-2550*
G01*
X144166*
Y124346*
X136942*
Y126705*
X135400*
Y123450*
X164650*
X167950Y126750*
G37*
X72630Y143950D02*
G36*
X60150D01*
Y133550*
X66950Y126750*
X74692*
X74492Y126950*
X66950*
Y135750*
X68400*
Y136433*
G75*
G02X68077Y137850I2949J1418*
G01*
G75*
G02X68634Y139677I3272J0*
G01*
G75*
G02X69437Y140609I2716J-1527*
G01*
X72630Y143802*
Y143950*
G37*
X133893D02*
G36*
X107902D01*
X109372Y142297*
G75*
G02X112037Y139750I115J-2548*
G01*
G75*
G02X107350Y138358I-2550*
G01*
X99285*
Y126750*
X131604*
G75*
G02X131698Y127173I1458J-102*
G01*
G75*
G02X128000Y129450I-1148J2277*
G01*
G75*
G02X128600Y131093I2550*
G01*
Y131750*
G75*
G02X129171Y133129I1950*
G01*
X130646Y134603*
G75*
G02X130900Y135218I2221J-559*
G01*
Y140150*
G75*
G02X131471Y141529I1950*
G01*
X133893Y143950*
G37*
X169150D02*
G36*
X166300D01*
Y139700*
X157800*
Y143950*
X154300*
Y136600*
X149267*
G75*
G02X150300Y134551I-1515J-2049*
G01*
G75*
G02Y134550I-2506J0*
G01*
G75*
G02X145726Y133000I-2550*
G01*
G75*
G02X144983Y133445I425J1551*
G01*
X144166Y134307*
Y126750*
X160000*
G75*
G02X165100I2550*
G01*
X167950*
X169150Y127950*
Y143950*
G37*
X186900Y207550D02*
G36*
Y203300D01*
X178400*
Y207550*
X176900*
Y203300*
X168400*
Y207550*
X166900*
Y203300*
X163957*
Y191100*
X164400*
Y185100*
X150700*
Y191100*
X151143*
Y203300*
X148800*
Y192950*
G75*
G02X148360Y191910I-1452J1*
G01*
X145000Y188550*
Y185100*
X131300*
Y190439*
G75*
G02X130943Y191450I1253J1012*
G01*
Y203300*
X129100*
Y192550*
G75*
G02X128675Y191525I-1453J1*
G01*
X125800Y188649*
Y185200*
X112100*
Y188749*
X111425Y189425*
G75*
G02X111000Y190450I1028J1026*
G01*
Y203300*
X108900*
Y191250*
G75*
G02X108475Y190225I-1453J1*
G01*
X106600Y188349*
Y185100*
X92900*
Y188227*
X91613Y189513*
G75*
G02X91143Y190650I1138J1137*
G01*
Y203300*
X88900*
Y191800*
G75*
G02X88460Y190760I-1452J1*
G01*
X87400Y189700*
Y185200*
X73700*
Y187999*
X72825Y188875*
G75*
G02X72400Y189900I1028J1026*
G01*
Y203300*
X68400*
Y207550*
X66900*
Y203300*
X58400*
Y207550*
X40785*
X28168Y194932*
Y194432*
X60150Y162450*
Y143950*
X72630*
Y146265*
X75085*
X77760Y148940*
G75*
G02X79250Y149557I1491J-1493*
G01*
X86750*
G75*
G02X88287Y148891I0J-2106*
G01*
X88683Y148470*
X91103Y150935*
G75*
G02X92061Y151405I1146J-1124*
G01*
Y154264*
X86486*
G75*
G02X85461Y154689I1J1453*
G01*
X73625Y166525*
G75*
G02X73200Y167550I1028J1026*
G01*
Y172552*
G75*
G02X72100Y174650I1450J2098*
G01*
G75*
G02X73043Y176630I2550*
G01*
Y178250*
G75*
G02X73564Y179435I1609J-1*
G01*
X73700Y179560*
Y184700*
X87400*
Y178974*
G75*
G02X88900Y176650I-1050J-2324*
G01*
G75*
G02X87800Y174552I-2550*
G01*
Y172751*
X91851Y168700*
X94227*
X92313Y170613*
G75*
G02X91843Y171750I1138J1137*
G01*
Y172670*
G75*
G02X90900Y174650I1607J1980*
G01*
G75*
G02X91743Y176544I2550*
G01*
Y178750*
Y178750*
G75*
G02X92250Y179923I1607*
G01*
X92900Y180531*
Y184600*
X106600*
Y182073*
X109384Y179289*
G75*
G02X111700Y176750I-235J-2540*
G01*
G75*
G02X111646Y176226I-2552J0*
G01*
G75*
G02X112700Y177017I2006J-1579*
G01*
Y178700*
X112100*
Y184700*
X125800*
Y178700*
X125667*
G75*
G02X126500Y177640I-1515J-2049*
G01*
G75*
G02X129308Y179159I2350J-990*
G01*
X131300Y181151*
Y184600*
X145000*
Y181601*
X145875Y180725*
G75*
G02X146300Y179700I-1028J-1026*
G01*
Y176748*
G75*
G02X147400Y174651I-1448J-2097*
G01*
G75*
G02X147362Y174213I-2549J0*
G01*
X149341Y176192*
G75*
G02X149300Y176650I2509J457*
G01*
G75*
G02X150243Y178630I2551*
G01*
Y180550*
G75*
G02X150630Y181596I1610J-1*
G01*
X150700Y181678*
Y184600*
X164400*
Y178600*
X163800*
Y176748*
G75*
G02X164900Y174650I-1450J-2098*
G01*
G75*
G02X161892Y172141I-2550*
G01*
X149751Y160000*
X154200*
Y151258*
X157307*
X157800Y151751*
Y158200*
X166300*
Y149700*
X159851*
X158933Y148783*
G75*
G02X157908Y148358I-1026J1028*
G01*
X144166*
Y144900*
X145800*
Y145400*
X154300*
Y143950*
X157800*
Y148200*
X166300*
Y143950*
X169150*
Y162450*
X188850Y182150*
X188950*
X208332Y201532*
Y202032*
X202815Y207550*
X186900*
G37*
X133893Y143950D02*
G36*
X134171Y144229D01*
G75*
G02X134207Y144264I806J-789*
G01*
X130650*
G75*
G02X129548Y144701I0J1609*
G01*
X128994Y145223*
G75*
G02X126100Y147750I-344J2527*
G01*
G75*
G02X131200I2550*
G01*
G75*
G02Y147744I-2429J-3*
G01*
G75*
G02X131193Y147568I-2338*
G01*
X131288Y147479*
X136942*
Y157554*
X144166*
Y155195*
X145600*
Y159900*
X146600*
Y160350*
G75*
G02X147025Y161375I1453J-1*
G01*
X159841Y174192*
G75*
G02X159800Y174650I2509J457*
G01*
G75*
G02X160900Y176748I2550*
G01*
Y178600*
X157400*
Y176948*
G75*
G02X158500Y174850I-1450J-2098*
G01*
G75*
G02X155492Y172341I-2550*
G01*
X145516Y162365*
G75*
G02X144491Y161941I-1026J1028*
G01*
X134718*
Y159778*
X101509*
Y161783*
X90191*
G75*
G02X89050Y162258J1607*
G01*
X81250Y170118*
G75*
G02X80783Y171250I1142J1133*
G01*
Y172913*
G75*
G02X80157Y174112I1866J1736*
G01*
Y170320*
X89616Y160862*
X98541*
G75*
G02X99677Y160391I-1J-1609*
G01*
X101287Y158782*
G75*
G02X101757Y157645I-1138J-1137*
G01*
Y155255*
G75*
G02X101287Y154118I-1609J1*
G01*
X100281Y153113*
G75*
G02X100523Y152913I-892J-1331*
G01*
X100945Y152492*
G75*
G02X103700Y149950I205J-2542*
G01*
G75*
G02X101455Y147419I-2550*
G01*
X100850Y146813*
G75*
G02X99713Y146343I-1137J1138*
G01*
X99285*
Y145557*
X105750*
G75*
G02X106951Y145019J-1608*
G01*
X107902Y143950*
X133893*
G37*
X68400Y207550D02*
G36*
Y211800D01*
X76043*
Y212484*
X75227Y213300*
X68400*
Y217550*
X66900*
Y213300*
X58400*
Y217550*
X50785*
X40785Y207550*
X58400*
Y211800*
X66900*
Y207550*
X68400*
G37*
X78400Y217550D02*
G36*
X76900D01*
Y216173*
X78400Y214673*
Y217550*
G37*
X88400D02*
G36*
X86900D01*
Y215450*
X88400Y213950*
Y217550*
G37*
X98400D02*
G36*
X96900D01*
Y215751*
X98400Y214251*
Y217550*
G37*
X108400D02*
G36*
X106900D01*
Y215351*
X108400Y213851*
Y217550*
G37*
X118400D02*
G36*
X116900D01*
Y215351*
X118375Y213875*
G75*
G02X118400Y213850I-781J-794*
G01*
Y217550*
G37*
X128400D02*
G36*
X126900D01*
Y215351*
X128400Y213851*
Y217550*
G37*
X138400D02*
G36*
X136900D01*
Y216273*
X138400Y214773*
Y217550*
G37*
X148400D02*
G36*
X146900D01*
Y215450*
X148360Y213990*
G75*
G02X148400Y213950I-661J-694*
G01*
Y217550*
G37*
X186900D02*
G36*
Y213300D01*
X178400*
Y217550*
X176900*
Y213300*
X168400*
Y217550*
X166900*
Y213300*
X164100*
Y211800*
X166900*
Y207550*
X168400*
Y211800*
X176900*
Y207550*
X178400*
Y211800*
X186900*
Y207550*
X202815*
X192815Y217550*
X186900*
G37*
X158400D02*
G36*
X156900D01*
Y215351*
X158375Y213875*
G75*
G02X158400Y213850I-781J-794*
G01*
Y217550*
G37*
X166900D02*
G36*
X168400D01*
Y221800*
X176900*
Y217550*
X178400*
Y221800*
X186900*
Y217550*
X192815*
X171065Y239300*
X72535*
X50785Y217550*
X58400*
Y221800*
X66900*
Y217550*
X68400*
Y221800*
X76900*
Y217550*
X78400*
Y221800*
X86900*
Y217550*
X88400*
Y221800*
X96900*
Y217550*
X98400*
Y221800*
X106900*
Y217550*
X108400*
Y221800*
X116900*
Y217550*
X118400*
Y221800*
X126900*
Y217550*
X128400*
Y221800*
X136900*
Y217550*
X138400*
Y221800*
X146900*
Y217550*
X148400*
Y221800*
X156900*
Y217550*
X158400*
Y221800*
X166900*
Y217550*
G37*
X98531Y32031D02*
X103931D01*
Y37531*
X98531*
Y32031*
G36*
X103931*
Y37531*
X98531*
Y32031*
G37*
X98900Y56159D02*
X100676D01*
Y52882*
G75*
G02X101475Y52475I-226J-1432*
G01*
X101824Y52126*
Y56159*
X103517*
Y59277*
G75*
G02X102800Y61050I1833J1773*
G01*
G75*
G02X107900I2550*
G01*
G75*
G02X107232Y59329I-2550*
G01*
Y56159*
X108924*
Y51859*
X102091*
G75*
G02X102487Y51041I-1041J-1009*
G01*
X108924*
Y46741*
X108000*
Y43150*
G75*
G02X107575Y42125I-1450*
G01*
X106082Y40631*
X108431*
Y38231*
X109081*
X111520Y40671*
Y70252*
G75*
G02X112600Y74873I1450J2098*
G01*
X114219Y76493*
X112825*
X110698Y74324*
G75*
G02X109550Y73843I-1148J1126*
G01*
X99343*
G75*
G02X98900Y73528I-1692J1908*
G01*
Y56159*
G36*
X100676*
Y52882*
G75*
G02X101475Y52475I-226J-1432*
G01*
X101824Y52126*
Y56159*
X103517*
Y59277*
G75*
G02X102800Y61050I1833J1773*
G01*
G75*
G02X107900I2550*
G01*
G75*
G02X107232Y59329I-2550*
G01*
Y56159*
X108924*
Y51859*
X102091*
G75*
G02X102487Y51041I-1041J-1009*
G01*
X108924*
Y46741*
X108000*
Y43150*
G75*
G02X107575Y42125I-1450*
G01*
X106082Y40631*
X108431*
Y38231*
X109081*
X111520Y40671*
Y70252*
G75*
G02X112600Y74873I1450J2098*
G01*
X114219Y76493*
X112825*
X110698Y74324*
G75*
G02X109550Y73843I-1148J1126*
G01*
X99343*
G75*
G02X98900Y73528I-1692J1908*
G01*
Y56159*
G37*
X99096Y89550D02*
X108049D01*
G75*
G02X108043Y94147I1101J2300*
G01*
Y96743*
G75*
G02X104969Y96506I-1693J1907*
G01*
G75*
G02X105300Y95250I-2219J-1257*
G01*
G75*
G02X100200I-2550*
G01*
G75*
G02X101143Y97230I2550*
G01*
Y105450*
G75*
G02X101613Y106587I1607*
G01*
X104310Y109283*
G75*
G02X104046Y109245I-361J1566*
G01*
G75*
G02X99600Y110950I-1896J1705*
G01*
G75*
G02X99609Y111158I2550J-2*
G01*
X99100Y110649*
Y93748*
G75*
G02X99096Y89550I-1450J-2098*
G01*
G36*
X108049*
G75*
G02X108043Y94147I1101J2300*
G01*
Y96743*
G75*
G02X104969Y96506I-1693J1907*
G01*
G75*
G02X105300Y95250I-2219J-1257*
G01*
G75*
G02X100200I-2550*
G01*
G75*
G02X101143Y97230I2550*
G01*
Y105450*
G75*
G02X101613Y106587I1607*
G01*
X104310Y109283*
G75*
G02X104046Y109245I-361J1566*
G01*
G75*
G02X99600Y110950I-1896J1705*
G01*
G75*
G02X99609Y111158I2550J-2*
G01*
X99100Y110649*
Y93748*
G75*
G02X99096Y89550I-1450J-2098*
G01*
G37*
X110251D02*
X114961D01*
G75*
G02X113700Y91750I1289J2200*
G01*
G75*
G02X117625Y93897I2550*
G01*
G75*
G02X117919Y94350I1725J-797*
G01*
G75*
G02Y96850I1431J1250*
G01*
G75*
G02X117593Y98823I1431J1250*
G01*
G75*
G02X114700Y101350I-343J2527*
G01*
G75*
G02X117708Y103859I2550*
G01*
X121585Y107735*
Y114897*
X118757*
Y107929*
G75*
G02X118274Y106780I-1607*
G01*
X114357Y102952*
Y98530*
G75*
G02X111257Y94482I-1607J-1980*
G01*
Y93285*
G75*
G02X110251Y89550I-2107J-1435*
G01*
G36*
X114961*
G75*
G02X113700Y91750I1289J2200*
G01*
G75*
G02X117625Y93897I2550*
G01*
G75*
G02X117919Y94350I1725J-797*
G01*
G75*
G02Y96850I1431J1250*
G01*
G75*
G02X117593Y98823I1431J1250*
G01*
G75*
G02X114700Y101350I-343J2527*
G01*
G75*
G02X117708Y103859I2550*
G01*
X121585Y107735*
Y114897*
X118757*
Y107929*
G75*
G02X118274Y106780I-1607*
G01*
X114357Y102952*
Y98530*
G75*
G02X111257Y94482I-1607J-1980*
G01*
Y93285*
G75*
G02X110251Y89550I-2107J-1435*
G01*
G37*
X119413Y100000D02*
X124550D01*
G75*
G02X124895Y99969I1J-1901*
G01*
X125006Y100079*
G75*
G02X125000Y100250I2543J173*
G01*
G75*
G02X128985Y102357I2550*
G01*
X129077*
X131720Y105000*
X131600*
Y107149*
X131259Y106808*
G75*
G02X131300Y106350I-2508J-457*
G01*
G75*
G02X126200I-2550*
G01*
G75*
G02X129208Y108859I2550*
G01*
X129459Y109109*
Y114897*
X124485*
Y107135*
G75*
G02X124060Y106109I-1450*
G01*
X119759Y101808*
G75*
G02X119413Y100000I-2509J-458*
G01*
G36*
X124550*
G75*
G02X124895Y99969I1J-1901*
G01*
X125006Y100079*
G75*
G02X125000Y100250I2543J173*
G01*
G75*
G02X128985Y102357I2550*
G01*
X129077*
X131720Y105000*
X131600*
Y107149*
X131259Y106808*
G75*
G02X131300Y106350I-2508J-457*
G01*
G75*
G02X126200I-2550*
G01*
G75*
G02X129208Y108859I2550*
G01*
X129459Y109109*
Y114897*
X124485*
Y107135*
G75*
G02X124060Y106109I-1450*
G01*
X119759Y101808*
G75*
G02X119413Y100000I-2509J-458*
G01*
G37*
X149257Y71432D02*
Y61516D01*
X149916Y60857*
X151902*
G75*
G02X153670Y60700I748J-1607*
G01*
X166091*
Y64091*
X159587*
G75*
G02X154500Y64350I-2537J259*
G01*
G75*
G02X157508Y66859I2550*
G01*
X158001Y67352*
G75*
G02X159026Y67776I1025J-1025*
G01*
X159204*
Y67869*
X153550*
G75*
G02X152425Y68328J1607*
G01*
X149257Y71432*
G36*
Y61516*
X149916Y60857*
X151902*
G75*
G02X153670Y60700I748J-1607*
G01*
X166091*
Y64091*
X159587*
G75*
G02X154500Y64350I-2537J259*
G01*
G75*
G02X157508Y66859I2550*
G01*
X158001Y67352*
G75*
G02X159026Y67776I1025J-1025*
G01*
X159204*
Y67869*
X153550*
G75*
G02X152425Y68328J1607*
G01*
X149257Y71432*
G37*
X157400Y191100D02*
X160743D01*
Y203300*
X158800*
Y194850*
G75*
G02X158375Y193825I-1450*
G01*
X157400Y192849*
Y191100*
G36*
X160743*
Y203300*
X158800*
Y194850*
G75*
G02X158375Y193825I-1450*
G01*
X157400Y192849*
Y191100*
G37*
X160194Y98579D02*
X163916Y94857D01*
X166091*
Y97496*
X169869*
Y98580*
X162432*
Y111300*
X161744*
Y105606*
X161744*
Y98579*
X160194*
G36*
X163916Y94857*
X166091*
Y97496*
X169869*
Y98580*
X162432*
Y111300*
X161744*
Y105606*
X161744*
Y98579*
X160194*
G37*
X167804Y71471D02*
G75*
G02X172398Y69848I2046J-1521D01*
G01*
X172893Y70332*
Y84947*
G75*
G02X169691Y88896I-1443J2103*
G01*
X167804*
Y71471*
G36*
G75*
G02X172398Y69848I2046J-1521*
G01*
X172893Y70332*
Y84947*
G75*
G02X169691Y88896I-1443J2103*
G01*
X167804*
Y71471*
G37*
X173574Y65804D02*
X190896D01*
Y79770*
X182154Y71028*
G75*
G02X182700Y69450I-2004J-1578*
G01*
G75*
G02X177600I-2550*
G01*
G75*
G02X178805Y71617I2550*
G01*
G75*
G02X179125Y72100I1344J-543*
G01*
X190125Y83100*
G75*
G02X190896Y83502I1025J-1025*
G01*
Y88896*
X182609*
G75*
G02X182127Y87923I-1685J229*
G01*
X180552Y86348*
G75*
G02X179350Y85850I-1202J1202*
G01*
X176607*
Y69550*
G75*
G02X176048Y68222I-1857*
G01*
X173574Y65804*
G36*
X190896*
Y79770*
X182154Y71028*
G75*
G02X182700Y69450I-2004J-1578*
G01*
G75*
G02X177600I-2550*
G01*
G75*
G02X178805Y71617I2550*
G01*
G75*
G02X179125Y72100I1344J-543*
G01*
X190125Y83100*
G75*
G02X190896Y83502I1025J-1025*
G01*
Y88896*
X182609*
G75*
G02X182127Y87923I-1685J229*
G01*
X180552Y86348*
G75*
G02X179350Y85850I-1202J1202*
G01*
X176607*
Y69550*
G75*
G02X176048Y68222I-1857*
G01*
X173574Y65804*
G37*
X182875Y97496D02*
X185774D01*
Y97706*
G75*
G02X183400Y100250I176J2544*
G01*
G75*
G02X188500I2550*
G01*
G75*
G02X188450Y99750I-2550*
G01*
G75*
G02X188674Y98976I-1226J-774*
G01*
Y97496*
X192609*
Y96146*
X194715Y98274*
G75*
G02X194700Y98550I2536J276*
G01*
G75*
G02X199800I2550*
G01*
G75*
G02X197000Y96012I-2550*
G01*
X196274Y95279*
G75*
G02X199559Y92392I776J-2430*
G01*
X200600Y91351*
Y101950*
G75*
G02X201025Y102975I1450*
G01*
X202925Y104875*
G75*
G02X203400Y105192I1026J-1025*
G01*
Y108400*
X211900*
Y107910*
X215943Y112009*
Y112900*
X215000*
Y117300*
X213558*
X211900Y115642*
Y109900*
X203400*
Y112200*
X186358*
X182875Y108717*
Y97496*
G36*
X185774*
Y97706*
G75*
G02X183400Y100250I176J2544*
G01*
G75*
G02X188500I2550*
G01*
G75*
G02X188450Y99750I-2550*
G01*
G75*
G02X188674Y98976I-1226J-774*
G01*
Y97496*
X192609*
Y96146*
X194715Y98274*
G75*
G02X194700Y98550I2536J276*
G01*
G75*
G02X199800I2550*
G01*
G75*
G02X197000Y96012I-2550*
G01*
X196274Y95279*
G75*
G02X199559Y92392I776J-2430*
G01*
X200600Y91351*
Y101950*
G75*
G02X201025Y102975I1450*
G01*
X202925Y104875*
G75*
G02X203400Y105192I1026J-1025*
G01*
Y108400*
X211900*
Y107910*
X215943Y112009*
Y112900*
X215000*
Y117300*
X213558*
X211900Y115642*
Y109900*
X203400*
Y112200*
X186358*
X182875Y108717*
Y97496*
G37*
D02*
D99*
X20150Y121950D02*
Y125050D01*
X23050Y127950*
X71150Y72650D02*
X74250Y75750D01*
X97650*
X74650Y174650D02*
X74750D01*
Y178250*
X75850Y179350*
Y181700*
X75750*
Y188200D02*
X75550D01*
X73850Y189900*
Y207800*
X72650*
Y207550*
X78550Y176650D02*
Y169655D01*
X88950Y159255*
X98541*
X100150Y157645*
Y155255*
X98745Y153850*
X95673*
Y153745*
X78950Y181700D02*
Y177050D01*
X78550Y176650*
X78950Y188200D02*
X79050D01*
Y191650*
X77650Y193050*
Y213150*
X74100Y216700*
X72650*
Y217550*
X82150Y181700D02*
Y175150D01*
X82650Y174650*
X82150Y188200D02*
X82250D01*
Y191200*
X82850Y191800*
Y207550*
X82650*
X82850Y142850D02*
Y141950D01*
X88250*
X85350Y181700D02*
Y177650D01*
X86350Y176650*
X85350Y188200D02*
Y189700D01*
X87450Y191800*
Y212850*
X82450Y217850*
Y217550*
X82650*
X87450Y124250D02*
X89850D01*
X91150Y125550*
Y129050*
X92223Y130123*
X95673*
X87450Y137650D02*
Y137950D01*
X95326*
X95373Y137997*
X95673*
X91800Y90900D02*
X91750Y90950D01*
X93450Y174650D02*
Y171750D01*
X96050Y169150*
X105087*
X107187Y167050*
Y163391*
X107287*
X94350Y174450D02*
X94650Y174750D01*
X94550Y175250*
X93850*
X94950Y181600D02*
X94850D01*
Y180250*
X93350Y178750*
Y174650*
X93450*
X94950Y188100D02*
X94550D01*
Y188850*
X92750Y190650*
Y207550*
X92650*
X95673Y126186D02*
Y122873D01*
X94050Y121250*
X85050*
X83550Y122750*
Y124250*
X95673Y134060D02*
Y133950D01*
X84750*
Y131350*
X95673Y139966D02*
Y139950D01*
X109550*
X109487Y139887*
Y139750*
X95673Y141934D02*
X88266D01*
X88250Y141950*
X95673Y143903D02*
Y143950D01*
X91350*
X89403Y145897*
X88250*
Y145850*
X95673Y147840D02*
Y145871D01*
Y149808D02*
X95650D01*
Y149850*
X92250*
Y149750*
X89050Y146550*
Y145850*
X88250*
X95673Y151777D02*
X99387D01*
X100413Y150750*
Y148650*
X99713Y147950*
X95783*
X95673Y147840*
Y155714D02*
X86486D01*
X74650Y167550*
Y174650*
X96281Y32781D02*
X93681D01*
X93150Y32250*
X96281Y34781D02*
X88150Y34750D01*
Y33550*
X96281Y36781D02*
X93519D01*
X92750Y37550*
X97126Y51450D02*
X100450D01*
X101050Y50850*
Y47350*
X98550Y44850*
X97050*
Y44650*
X97650Y75750D02*
Y74626D01*
X97450Y74426*
Y54009*
X97126*
X97650Y91650D02*
Y111250D01*
X101050Y114650*
X104350*
X105318Y115618*
Y118509*
X98150Y181600D02*
Y177050D01*
X97750Y176650*
X98150Y188100D02*
X97950D01*
Y212650*
X93050Y217550*
X92650*
X99181Y29781D02*
X99150Y24650D01*
Y22650*
X99450Y22350*
X99181Y39781D02*
X99150Y42450D01*
Y42550*
X97050Y44650*
X101181Y39781D02*
X101150Y42350D01*
Y42750*
X103250Y44850*
X101350Y188100D02*
X101050D01*
Y190850*
X102450Y192250*
Y207550*
X102650*
X101550Y127950D02*
X100950D01*
X100750Y128150*
X100150*
X100145Y128155*
X95673*
X102650Y217550D02*
X102250D01*
Y217850*
X102350*
X107450Y212750*
Y191250*
X105050Y188850*
X104550Y187850*
Y188100*
X102750Y95250D02*
Y105450D01*
X109250Y111950*
X109255Y115455*
Y118509*
X103350D02*
Y116650D01*
X97950*
X96150Y114850*
X95750*
X103350Y163391D02*
Y163450D01*
X90191*
X82391Y171250*
Y174650*
X82650*
X103450Y176650D02*
Y176150D01*
X101450Y178250*
Y181600*
X101350*
X105318Y163391D02*
Y166382D01*
X104450Y167250*
X91250*
X86350Y172150*
Y176650*
X105374Y48891D02*
X106550D01*
Y43150*
X103181Y39781*
X106181Y30781D02*
X106150Y25350D01*
Y22350*
X105350Y21550*
X106181Y36781D02*
X109681D01*
X112970Y40070*
Y72350*
X106181Y38781D02*
X107681D01*
X110050Y41150*
X106350Y98650D02*
Y105250D01*
X111150Y110050*
Y118509*
X111224*
X107287D02*
Y114187D01*
X103950Y110850*
X102350*
Y110750*
X102150Y110950*
X109150Y91850D02*
X109650D01*
Y104550*
X115150Y110050*
Y118509*
X115161*
X109150Y176750D02*
Y177250D01*
X105350Y181050*
X104700Y181600*
X104550*
X109255Y163391D02*
Y163250D01*
X109150*
Y167950*
X105450Y171650*
X99850*
X97750Y173750*
Y176650*
X109487Y139750D02*
X109550D01*
X105750Y143950*
X95750*
Y143903*
X95673*
X111224Y163391D02*
X111250D01*
Y168950*
X103550Y176650*
X103450*
X112750Y96550D02*
X112850D01*
Y103629*
X117150Y107929*
Y118509*
X117129*
X113192Y163391D02*
X113250D01*
Y170150*
X109150Y174250*
Y176750*
X114150Y181700D02*
Y175150D01*
X113650Y174650*
X114150Y188200D02*
X113950D01*
Y188950*
X112450Y190450*
Y207550*
X112650*
X115161Y163391D02*
X115150D01*
Y173050*
X114139Y174061*
Y174650*
X113650*
X117129Y163391D02*
X117150D01*
Y176650*
X117350Y181700D02*
Y176850D01*
X117150Y176650*
X117350Y188200D02*
Y212850D01*
X112650Y217550*
X119098Y118509D02*
Y112402D01*
X120150Y111350*
X119098Y163391D02*
Y173098D01*
X120650Y174650*
X120550Y181700D02*
Y174750D01*
X120650Y174650*
X120550Y188200D02*
Y190650D01*
X122650Y192750*
Y207550*
X121066Y163391D02*
X121050D01*
Y170850*
X124134Y173934*
Y176650*
X124150*
X121950Y75600D02*
Y75950D01*
X115950*
X112500Y72500*
X112970*
Y72350*
X121950Y78100D02*
Y78050D01*
X112150*
X109550Y75450*
X97650*
Y75750*
X121950Y80600D02*
X110100D01*
X109150Y79650*
X121950Y83100D02*
Y83250D01*
X105350*
X102750Y80650*
X121950Y85600D02*
X90800D01*
X79999Y96401*
X121950Y88100D02*
X94600D01*
X91800Y90900*
X121950Y90600D02*
X117400D01*
X116250Y91750*
X121950Y95600D02*
X127700D01*
X132050Y91250*
X123035Y118509D02*
Y107135D01*
X117250Y101350*
X123035Y163391D02*
Y169850D01*
X122950*
X128265Y175165*
X128850Y176650*
X123750Y181700D02*
Y177050D01*
X124150Y176650*
X123750Y188200D02*
X124250D01*
Y189150*
X127650Y192550*
Y212550*
X122650Y217550*
X127550Y100250D02*
Y99750D01*
X126950*
X125350Y98150*
Y98100*
X121950*
X128940Y163391D02*
Y167150D01*
X131140Y169350*
X140550*
X144850Y173650*
Y174650*
X130350Y54550D02*
Y88150D01*
X125350Y93150*
X121950*
Y93100*
X130909Y118509D02*
Y108509D01*
X128750Y106350*
X130909Y163391D02*
Y166209D01*
X132050Y167350*
X142550*
X151850Y176650*
X132877Y163391D02*
X144491D01*
X155950Y174850*
X133350Y181600D02*
Y181150D01*
X128850Y176650*
X133350Y188100D02*
X132950D01*
Y191050*
X132550Y191450*
Y205650*
X132650Y205750*
Y207550*
X133750Y117337D02*
X132877Y118209D01*
Y118509*
X134050Y176650D02*
X133450D01*
Y177050*
X124950Y168550*
Y163391*
X125003*
X136550Y181600D02*
Y179150D01*
X134050Y176650*
X136550Y188100D02*
X136650D01*
Y192750*
X137950Y194050*
Y212950*
X133350Y217550*
X132650*
X139750Y181600D02*
Y176950D01*
X139950Y176750*
X139750Y188100D02*
Y190650D01*
X142650Y193550*
Y207550*
X139950Y176750D02*
Y175050D01*
X140050Y174950*
Y174050*
X137850Y171850*
X131050*
X126972Y167772*
Y163391*
X140317Y125949D02*
X138463Y124096D01*
X140317Y155951D02*
X138463Y157804D01*
X140554Y128155D02*
X134555D01*
X133050Y126650*
Y118682*
X132877Y118509*
X140554Y130123D02*
X145677D01*
X146550Y129250*
Y126850*
X145950Y126250*
X140690*
X140626Y126186*
X140554*
Y132092D02*
X136292D01*
X133950Y129750*
Y118350*
X133791Y118509*
X132877*
X140554Y134060D02*
X132860D01*
X132850Y134050*
X140554Y136029D02*
Y135950D01*
X144750*
X146150Y134550*
X147750*
X140554Y136029D02*
X136835D01*
X136113Y136750*
Y139150*
X136913Y139950*
X140438*
X140454Y139966*
X140554*
Y141934D02*
Y143903D01*
X140550*
Y142850*
X140554Y143903D02*
Y142950D01*
Y145871D02*
X139292D01*
X133550Y145750*
X130650*
X128550Y147850*
X128750*
X128850Y147750*
X128350Y147650*
X128550*
Y147750*
X128650*
X140554Y147840D02*
X158160D01*
X162050Y143950*
X140554Y149808D02*
X157908D01*
X162050Y153950*
X140554Y151777D02*
X146277D01*
X148050Y153550*
X140554Y153745D02*
X147855D01*
X148050Y153550*
X140554Y155714D02*
Y156754D01*
X142850Y159050*
X140791Y125949D02*
X142644Y124096D01*
X140791Y155951D02*
X142644Y157804D01*
X142650Y217550D02*
X142150D01*
Y218150*
X147350Y212950*
Y192950*
X143050Y188650*
Y188750*
X142850Y188950*
X142950Y188250*
Y188100*
Y75600D02*
X138850D01*
X137450Y74200*
Y59450*
X141950Y54950*
Y47650*
X146950Y42650*
Y42350*
X142950Y93100D02*
Y93250D01*
X138450*
X136450Y91250*
X132050*
X142950Y98100D02*
Y98550D01*
Y181600D02*
X144850Y179700D01*
Y174650*
X146950Y32350D02*
Y32550D01*
X152650Y38250*
Y59250*
X148050Y157450D02*
Y160350D01*
X162350Y174650*
X148250Y139050D02*
X148150Y139150D01*
X146950*
X145750Y137950*
X140554*
Y137997*
X151750Y153650D02*
X148150D01*
X148050Y153550*
X151750Y157550D02*
X148150D01*
X148050Y157450*
X151850Y102650D02*
Y103350D01*
X157181*
X157739Y102793*
Y102093*
X151850Y106550D02*
X152593D01*
X153693Y107650*
X157738*
Y108393*
X152650Y59250D02*
X149250D01*
X147650Y60850*
Y72050*
X146550Y73150*
X143000*
X142950Y73100*
X152750Y181600D02*
Y181450D01*
X151850Y180550*
Y176650*
X152750Y188100D02*
X152650D01*
Y207550*
X154450Y91150D02*
X153250D01*
X152700Y90600*
X142950*
X155950Y181600D02*
Y174850D01*
Y188100D02*
Y193450D01*
X157350Y194850*
Y212850*
X152650Y217550*
X157739Y102093D02*
Y98761D01*
X163250Y93250*
X168273*
X168326Y93196*
X159150Y180350D02*
Y178350D01*
Y186850D02*
Y184850D01*
Y189350D02*
Y191350D01*
X159550Y143950D02*
X157550D01*
X162050Y141450D02*
Y139450D01*
Y146450D02*
Y148450D01*
X162350Y181600D02*
Y174650D01*
Y188100D02*
X162450D01*
Y207550*
X162650*
X162550Y113750D02*
X162544D01*
Y113704*
X157750Y108910*
X157738*
Y108393*
X162650Y217550D02*
Y207550D01*
X163504Y66326D02*
X159026D01*
X157050Y64350*
X163504Y69476D02*
Y69350D01*
X153550*
X147250Y75650*
X143226*
X143176Y75600*
X142950*
X163504Y72626D02*
Y72550D01*
X153550*
X148026Y78074*
X142976*
X142950Y78100*
X163504Y75775D02*
Y75750D01*
X153750*
X148875Y80625*
X143275*
X143250Y80600*
X142950*
X163504Y78925D02*
X155975D01*
X155650Y79250*
X163504Y82074D02*
Y82250D01*
X158950*
X158074Y83126*
X142976*
X142950Y83100*
X163504Y85224D02*
Y85450D01*
X143100*
X142950Y85600*
X163504Y88374D02*
Y87950D01*
X143224*
X143074Y88100*
X142950*
X164550Y143950D02*
X166550D01*
X166438Y102094D02*
Y98938D01*
X164450Y96950*
X166438Y102094D02*
X166444Y102050D01*
X165250*
X158951Y108349*
Y108393*
X157738*
X166438Y108395D02*
Y113744D01*
X166450Y113750*
X168326Y61504D02*
Y59250D01*
X152650*
X170150Y207550D02*
X168150D01*
X170150Y217550D02*
X168150D01*
X171476Y93196D02*
Y105524D01*
X168550Y108449*
X166438Y108395*
X171550Y55150D02*
Y61430D01*
X171476Y61504*
X172650Y205050D02*
Y203050D01*
Y210050D02*
Y212050D01*
Y215050D02*
Y213050D01*
Y220050D02*
Y222050D01*
X174626Y61504D02*
Y51950D01*
X182026Y44550*
X182150*
X175150Y207550D02*
X177150D01*
X175150Y217550D02*
X177150D01*
X177350Y55750D02*
Y61078D01*
X177775Y61504*
X181250Y55750D02*
X180925Y56075D01*
Y61504*
X184074D02*
Y54526D01*
X186350Y52250*
X187224Y61504D02*
X187450D01*
Y58150*
X189676Y55924*
Y41276*
X186550Y38150*
Y29250*
X186537Y29237*
X187224Y93196D02*
Y98976D01*
X185950Y100250*
X190374Y61504D02*
Y60526D01*
X192550Y58350*
Y39542*
X193608Y38484*
Y36308*
X190374Y93196D02*
Y93250D01*
X191950*
X197250Y98550*
X194750Y146450D02*
Y142198D01*
X194650Y142099*
X195196Y66326D02*
X196950D01*
Y48861*
X200679Y45132*
Y43379*
X195196Y69476D02*
X199224D01*
X200150Y68550*
Y58750*
X207750Y51150*
Y50450*
X195196Y72626D02*
Y72550D01*
X200650*
X202626Y70574*
Y65274*
X203750Y64150*
X207650*
X195196Y75775D02*
X201625D01*
X203350Y74050*
X207550*
X207650Y74150*
X195196Y78925D02*
X199825D01*
X202050Y81150*
Y101950*
X203950Y103850*
X207350*
X207650Y104150*
X195196Y82074D02*
X191150D01*
X180150Y71074*
Y69450*
X195196Y85224D02*
X199124D01*
X199950Y86050*
Y89950*
X197050Y92850*
X207650Y104150D02*
Y104250D01*
X210450*
X217550Y111350*
Y115250*
X222450*
Y116550*
X216450Y135150D02*
Y128650D01*
Y142150D02*
X222150D01*
X222350Y141950*
X216450Y142150D02*
X216399Y142099D01*
X194650*
D02*
D100*
X27150Y121950D02*
X48979D01*
X51715Y124685*
D02*
D104*
X26950Y128400D02*
Y130900D01*
X27400Y127950D02*
X29900D01*
X34080Y138828D02*
X30855D01*
X37572Y135335D02*
Y132110D01*
Y142320D02*
Y145545D01*
X41065Y138828D02*
X44290D01*
X97126Y48891D02*
X91891D01*
X91850Y48850*
X98035Y15350D02*
X95535D01*
X99450Y14130D02*
Y11630D01*
X105350Y17200D02*
Y14700D01*
X105374Y54009D02*
Y61026D01*
X105350Y61050*
X105800Y17650D02*
X108300D01*
X119450Y70600D02*
X116950D01*
X119450Y73100D02*
X116950D01*
X119450Y95600D02*
X116950D01*
X121950Y70700D02*
Y68200D01*
Y73100D02*
Y70600D01*
X124450D02*
X126950D01*
X124450Y73100D02*
X126950D01*
X124450Y95600D02*
X126950D01*
X135359Y20759D02*
X133591Y18991D01*
X135359Y23941D02*
X133591Y25709D01*
X137950Y107000D02*
Y104500D01*
Y111900D02*
Y114400D01*
X138400Y107450D02*
X140900D01*
X138400Y111450D02*
X140900D01*
X138541Y20759D02*
X140309Y18991D01*
X138541Y23941D02*
X140309Y25709D01*
X140450Y93100D02*
X137950D01*
X142830Y70480D02*
X140550Y68200D01*
X143070Y70480D02*
X145350Y68200D01*
X145359Y20759D02*
X143591Y18991D01*
X145359Y23941D02*
X143591Y25709D01*
X148541Y20759D02*
X150309Y18991D01*
X148541Y23941D02*
X150309Y25709D01*
X151400Y106550D02*
X148900D01*
X151850Y107000D02*
Y109500D01*
X157738Y109907D02*
Y112407D01*
X162100Y113750D02*
X159600D01*
X162550Y114200D02*
Y116700D01*
X166438Y100580D02*
Y98080D01*
X171100Y51250D02*
X168600D01*
X171476Y61504D02*
X171550D01*
Y66350*
X174750Y69550*
Y87550*
X174650*
X171550Y50800D02*
Y48300D01*
X174626Y93196D02*
Y87574D01*
X174650Y87550*
X179350*
X180925Y89125*
Y93196*
X177775Y95496D02*
Y97996D01*
X179800Y125149D02*
X177300D01*
X179800Y128949D02*
X177300D01*
X180250Y124699D02*
Y122199D01*
Y129399D02*
Y131899D01*
X180925Y63804D02*
Y66304D01*
X181250Y55300D02*
Y52800D01*
X184074Y90896D02*
Y88396D01*
X185050Y142099D02*
Y147050D01*
X184950Y147150*
X188850Y147600D02*
Y150100D01*
X189300Y147150D02*
X191800D01*
X192900Y138349D02*
X190400D01*
X194300Y150350D02*
X191800D01*
X194750Y150800D02*
Y153300D01*
X195200Y150350D02*
X197700D01*
X196400Y138349D02*
X198900D01*
X201550Y148550D02*
X199050D01*
X203950Y150950D02*
Y153450D01*
X206350Y148550D02*
X208850D01*
X217450Y115350D02*
X216850D01*
Y115450*
X222450*
Y116550*
Y132950D02*
Y115450D01*
X230400Y116550D02*
X227900D01*
X230400Y132950D02*
X227900D01*
X230950Y115200D02*
Y112700D01*
Y117900D02*
Y120400D01*
Y131600D02*
Y129100D01*
Y134300D02*
Y136800D01*
X231500Y116550D02*
X234000D01*
D02*
D105*
X136950Y22350D03*
Y32350D03*
Y42350D03*
Y52350D03*
X146950Y22350D03*
Y32350D03*
Y42350D03*
Y52350D03*
D02*
D106*
X103350Y118509D03*
Y163391D03*
X105318Y118509D03*
Y163391D03*
X107287Y118509D03*
Y163391D03*
X109255Y118509D03*
Y163391D03*
X111224Y118509D03*
Y163391D03*
X113192Y118509D03*
Y163391D03*
X115161Y118509D03*
Y163391D03*
X117129Y118509D03*
Y163391D03*
X119098Y118509D03*
Y163391D03*
X121066Y118509D03*
Y163391D03*
X123035Y118509D03*
Y163391D03*
X125003Y118509D03*
Y163391D03*
X126972Y118509D03*
Y163391D03*
X128940Y118509D03*
Y163391D03*
X130909Y118509D03*
Y163391D03*
X132877Y118509D03*
Y163391D03*
D02*
D107*
X95673Y126186D03*
Y128155D03*
Y130123D03*
Y132092D03*
Y134060D03*
Y136029D03*
Y137997D03*
Y139966D03*
Y141934D03*
Y143903D03*
Y145871D03*
Y147840D03*
Y149808D03*
Y151777D03*
Y153745D03*
Y155714D03*
X140554Y126186D03*
Y128155D03*
Y130123D03*
Y132092D03*
Y134060D03*
Y136029D03*
Y137997D03*
Y139966D03*
Y141934D03*
Y143903D03*
Y145871D03*
Y147840D03*
Y149808D03*
Y151777D03*
Y153745D03*
Y155714D03*
D02*
D108*
X88250Y141950D03*
Y145850D03*
X105350Y17650D03*
Y21550D03*
X148050Y153550D03*
Y157450D03*
X148250Y139050D03*
Y142950D03*
X151750Y153650D03*
Y157550D03*
X151850Y102650D03*
Y106550D03*
Y139050D03*
Y142950D03*
X171550Y51250D03*
Y55150D03*
X194750Y146450D03*
Y150350D03*
X217450Y115350D03*
Y119250D03*
D02*
D109*
X71350Y131350D03*
X84750D03*
X203950Y135150D03*
Y148550D03*
D02*
D110*
X23050Y127950D03*
X26950D03*
X83550Y124250D03*
Y137650D03*
X87450Y124250D03*
Y137650D03*
X134050Y107450D03*
Y111450D03*
X137950Y107450D03*
Y111450D03*
X162550Y113750D03*
X166450D03*
X177350Y55750D03*
X180250Y125149D03*
Y128949D03*
X181250Y55750D03*
X184150Y125149D03*
Y128949D03*
X184950Y147150D03*
X188850D03*
D02*
D111*
X168326Y61504D03*
Y93196D03*
X171476Y61504D03*
Y93196D03*
X174626Y61504D03*
Y93196D03*
X177775Y61504D03*
Y93196D03*
X180925Y61504D03*
Y93196D03*
X184074Y61504D03*
Y93196D03*
X187224Y61504D03*
Y93196D03*
X190374Y61504D03*
Y93196D03*
D02*
D112*
X163504Y66326D03*
Y69476D03*
Y72626D03*
Y75775D03*
Y78925D03*
Y82074D03*
Y85224D03*
Y88374D03*
X195196Y66326D03*
Y69476D03*
Y72626D03*
Y75775D03*
Y78925D03*
Y82074D03*
Y85224D03*
Y88373D03*
D02*
D113*
X75850Y142850D03*
X82850D03*
D02*
D114*
X99450Y15350D03*
Y22350D03*
D02*
D115*
X157738Y108393D03*
X157739Y102093D03*
X166438Y102094D03*
Y108395D03*
D02*
D116*
X222450Y116550D03*
Y132950D03*
X230950Y116550D03*
Y132950D03*
D02*
D117*
X62650Y207550D03*
Y217550D03*
X72650Y207550D03*
Y217550D03*
X82650Y207550D03*
Y217550D03*
X92650Y207550D03*
Y217550D03*
X102650Y207550D03*
Y217550D03*
X112650Y207550D03*
Y217550D03*
X122650Y207550D03*
Y217550D03*
X132650Y207550D03*
Y217550D03*
X142650Y207550D03*
Y217550D03*
X152650Y207550D03*
Y217550D03*
X162050Y143950D03*
Y153950D03*
X162650Y207550D03*
Y217550D03*
X172650Y207550D03*
Y217550D03*
X182650Y207550D03*
Y217550D03*
X207650Y64150D03*
Y74150D03*
Y84150D03*
Y94150D03*
Y104150D03*
Y114150D03*
D02*
D118*
X96281Y30781D03*
Y32781D03*
Y34781D03*
Y36781D03*
Y38781D03*
X106181Y30781D03*
Y32781D03*
Y34781D03*
Y36781D03*
Y38781D03*
D02*
D119*
X99181Y29781D03*
Y39781D03*
X101181Y29781D03*
Y39781D03*
X103181Y29781D03*
Y39781D03*
D02*
D120*
X185050Y134599D03*
Y142099D03*
X194650Y134599D03*
Y138349D03*
Y142099D03*
D02*
D121*
X75750Y181700D03*
Y188200D03*
X78950Y181700D03*
Y188200D03*
X82150Y181700D03*
Y188200D03*
X85350Y181700D03*
Y188200D03*
X94950Y181600D03*
Y188100D03*
X98150Y181600D03*
Y188100D03*
X101350Y181600D03*
Y188100D03*
X104550Y181600D03*
Y188100D03*
X114150Y181700D03*
Y188200D03*
X117350Y181700D03*
Y188200D03*
X120550Y181700D03*
Y188200D03*
X123750Y181700D03*
Y188200D03*
X133350Y181600D03*
Y188100D03*
X136550Y181600D03*
Y188100D03*
X139750Y181600D03*
Y188100D03*
X142950Y181600D03*
Y188100D03*
X152750Y181600D03*
Y188100D03*
X155950Y181600D03*
Y188100D03*
X159150Y181600D03*
Y188100D03*
X162350Y181600D03*
Y188100D03*
D02*
D122*
X97126Y48891D03*
Y51450D03*
Y54009D03*
X105374Y48891D03*
Y54009D03*
D02*
D123*
X121950Y70600D03*
Y73100D03*
Y75600D03*
Y78100D03*
Y80600D03*
Y83100D03*
Y85600D03*
Y88100D03*
Y90600D03*
Y93100D03*
Y95600D03*
Y98100D03*
X142950Y70600D03*
Y73100D03*
Y75600D03*
Y78100D03*
Y80600D03*
Y83100D03*
Y85600D03*
Y88100D03*
Y90600D03*
Y93100D03*
Y95600D03*
Y98100D03*
D02*
D124*
X38865Y55435D03*
X61139Y33161D03*
D02*
D125*
X216450Y135150D03*
Y142150D03*
D02*
D126*
X20150Y121950D03*
X27150D03*
D02*
D127*
X31350Y65350D03*
X42550Y162850D03*
X67950Y76150D03*
X69950Y184750D03*
X71150Y72650D03*
X71350Y138150D03*
X74650Y174650D03*
X75450Y68950D03*
X78550Y176650D03*
X80088Y10612D03*
X81250Y62950D03*
X82650Y174650D03*
X86350Y176650D03*
X88150Y33550D03*
X91750Y90950D03*
X91800Y90900D03*
X92750Y26850D03*
X93450Y174650D03*
X95750Y114850D03*
X97050Y44650D03*
X97650Y75750D03*
Y91650D03*
X97750Y176650D03*
X101150Y149950D03*
X101550Y127950D03*
X102150Y110950D03*
X102750Y80650D03*
Y95250D03*
X103250Y44850D03*
X103450Y176650D03*
X105350Y61050D03*
X106350Y98650D03*
X109150Y79650D03*
Y91850D03*
Y176750D03*
X109350Y64750D03*
X109487Y139750D03*
X112750Y96550D03*
X112970Y72350D03*
X113650Y174650D03*
X116250Y91750D03*
X117150Y176650D03*
X117250Y101350D03*
X120150Y111350D03*
X120650Y174650D03*
X123450Y51250D03*
X124150Y176650D03*
X125350Y137850D03*
X127550Y100250D03*
X128650Y147750D03*
X128750Y106350D03*
X128850Y176650D03*
X130350Y54550D03*
X130550Y129450D03*
X132050Y91250D03*
X134050Y176650D03*
X139950Y176750D03*
X142850Y159050D03*
X143150Y63650D03*
X144850Y174650D03*
X147750Y134550D03*
X150850Y118650D03*
X151850Y176650D03*
X154450Y91150D03*
X155650Y79250D03*
X155950Y174850D03*
X156250Y95850D03*
X157050Y64350D03*
X157250Y51350D03*
X162350Y174650D03*
X162550Y126750D03*
X164450Y96950D03*
X169850Y69950D03*
X171450Y87050D03*
X172150Y185850D03*
X177150Y131950D03*
X179850Y78050D03*
X180150Y69450D03*
X182150Y44550D03*
X183150Y38650D03*
X185550Y106150D03*
X185950Y100250D03*
X186350Y52250D03*
X194950Y157050D03*
X195050Y128150D03*
X197050Y92850D03*
X197250Y98550D03*
X211850Y148450D03*
X215150Y123850D03*
X216450Y128650D03*
X222350Y141950D03*
D02*
D128*
X71350Y138150D02*
X71050D01*
Y133150*
X79950Y124250*
X83550*
Y137650D02*
X71550D01*
X71350Y137850*
X88250Y145850D02*
Y145950D01*
X86750Y147450*
X79250*
X74850Y143050*
X75850*
Y142850*
X100250Y22550D02*
X100050Y22350D01*
X99450*
X105350Y21550D02*
Y22550D01*
X127550Y100250D02*
X129950D01*
X134150Y104450*
Y107450*
X134050*
X132850Y134050D02*
X130550Y131750D01*
Y129450*
X134050Y111450D02*
X133750D01*
Y117337*
X134050Y111450D02*
Y107450D01*
X137950D02*
Y111450D01*
X140550Y142850D02*
X135550D01*
X132850Y140150*
Y134050*
X140554Y142950D02*
X148250D01*
X142950Y98550D02*
X150100D01*
X152800Y95850*
X156250*
X151850Y139050D02*
X148250D01*
X151850Y142950D02*
X148250D01*
X180925Y93196D02*
Y109525D01*
X185550Y114150*
X207650*
X194850Y133550D02*
X194650Y128450D01*
Y134599*
X217450Y119250D02*
X212750D01*
X207650Y114150*
D02*
D129*
X99450Y22350D02*
X97250D01*
X92750Y26850*
X105350Y22550D02*
X100250D01*
X121950Y70600D02*
Y69850D01*
X123450*
Y51250*
D02*
D130*
X71350Y131350D02*
Y138150D01*
Y131350D02*
Y137850D01*
Y138350*
X75850Y142850*
X185050Y134599D02*
X184950Y134500D01*
Y124850*
X186750Y122650*
X197750*
X195050Y128150D02*
X194550D01*
Y133450*
X194950Y133550*
X194850*
X197750Y122650D02*
X203950D01*
Y135150*
X207650Y114150D02*
X203950Y117850D01*
Y135150*
X0Y0D02*
M02*
