G04 EasyPC Gerber Version 21.0.3 Build 4286 *
G04 #@! TF.Part,Single*
G04 #@! TF.FileFunction,Soldermask,Top *
G04 #@! TF.FilePolarity,Negative *
%FSLAX35Y35*%
%MOIN*%
G04 #@! TA.AperFunction,SMDPad*
%ADD131R,0.01781X0.05324*%
%ADD139R,0.01800X0.02600*%
%ADD141R,0.02200X0.04100*%
%ADD134R,0.02570X0.06700*%
%ADD14R,0.03000X0.03000*%
%ADD137R,0.03200X0.04800*%
%ADD74R,0.04537X0.04891*%
%ADD15R,0.04540X0.04930*%
G04 #@! TA.AperFunction,ComponentPad*
%ADD20R,0.06600X0.06600*%
G04 #@! TA.AperFunction,SMDPad*
%ADD133R,0.06900X0.06900*%
G04 #@! TA.AperFunction,ComponentPad*
%ADD24C,0.04200*%
G04 #@! TA.AperFunction,WasherPad*
%ADD10C,0.06600*%
%ADD11C,0.19100*%
G04 #@! TA.AperFunction,SMDPad*
%ADD142O,0.07100X0.01900*%
%ADD132R,0.05324X0.01781*%
%ADD138R,0.02600X0.01800*%
%ADD18R,0.05200X0.02400*%
%ADD135R,0.06700X0.02570*%
%ADD140R,0.05600X0.02800*%
%ADD12R,0.03000X0.03000*%
%ADD19R,0.04891X0.04537*%
%ADD17R,0.04930X0.04540*%
G04 #@! TA.AperFunction,ComponentPad*
%AMT21*0 Rectangle Pad at angle 45*21,1,0.06600,0.06600,0,0,45*%
%ADD21T21*%
G04 #@! TA.AperFunction,SMDPad*
%ADD136R,0.06112X0.05128*%
X0Y0D02*
D02*
D10*
X136950Y22350D03*
Y32350D03*
Y42350D03*
Y52350D03*
X146950Y22350D03*
Y32350D03*
Y42350D03*
Y52350D03*
D02*
D11*
X13850Y81150D03*
Y161150D03*
X230150Y81150D03*
Y161150D03*
D02*
D12*
X23050Y127950D03*
X26950D03*
X83550Y124250D03*
Y137650D03*
X87450Y124250D03*
Y137650D03*
X134050Y107450D03*
Y111450D03*
X137950Y107450D03*
Y111450D03*
X162550Y113750D03*
X166450D03*
X177350Y55750D03*
X180250Y125149D03*
Y128949D03*
X181250Y55750D03*
X184150Y125149D03*
Y128949D03*
X184950Y147150D03*
X188850D03*
D02*
D14*
X88250Y141950D03*
Y145850D03*
X105350Y17650D03*
Y21550D03*
X148050Y153550D03*
Y157450D03*
X148250Y139050D03*
Y142950D03*
X151750Y153650D03*
Y157550D03*
X151850Y102650D03*
Y106550D03*
Y139050D03*
Y142950D03*
X171550Y51250D03*
Y55150D03*
X194750Y146450D03*
Y150350D03*
X217450Y115350D03*
Y119250D03*
D02*
D15*
X75850Y142850D03*
X82850D03*
D02*
D17*
X99450Y15350D03*
Y22350D03*
D02*
D18*
X97126Y48891D03*
Y51450D03*
Y54009D03*
X105374Y48891D03*
Y54009D03*
D02*
D19*
X20150Y121950D03*
X27150D03*
D02*
D20*
X62650Y207550D03*
Y217550D03*
X72650Y207550D03*
Y217550D03*
X82650Y207550D03*
Y217550D03*
X92650Y207550D03*
Y217550D03*
X102650Y207550D03*
Y217550D03*
X112650Y207550D03*
Y217550D03*
X122650Y207550D03*
Y217550D03*
X132650Y207550D03*
Y217550D03*
X142650Y207550D03*
Y217550D03*
X152650Y207550D03*
Y217550D03*
X162050Y143950D03*
Y153950D03*
X162650Y207550D03*
Y217550D03*
X172650Y207550D03*
Y217550D03*
X182650Y207550D03*
Y217550D03*
X207650Y64150D03*
Y74150D03*
Y84150D03*
Y94150D03*
Y104150D03*
Y114150D03*
D02*
D21*
X30501Y145899D03*
X37572Y138828D03*
X44643Y131757D03*
X51715Y124685D03*
X58785Y117615D03*
X65857Y110543D03*
X72928Y103472D03*
X79999Y96401D03*
X186537Y29237D03*
X193608Y36308D03*
X200679Y43379D03*
X207750Y50450D03*
D02*
D24*
X38865Y55435D03*
X61139Y33161D03*
X235750Y110450D03*
Y130050D03*
D02*
D74*
X216450Y135150D03*
Y142150D03*
D02*
D131*
X103350Y118509D03*
Y163391D03*
X105318Y118509D03*
Y163391D03*
X107287Y118509D03*
Y163391D03*
X109255Y118509D03*
Y163391D03*
X111224Y118509D03*
Y163391D03*
X113192Y118509D03*
Y163391D03*
X115161Y118509D03*
Y163391D03*
X117129Y118509D03*
Y163391D03*
X119098Y118509D03*
Y163391D03*
X121066Y118509D03*
Y163391D03*
X123035Y118509D03*
Y163391D03*
X125003Y118509D03*
Y163391D03*
X126972Y118509D03*
Y163391D03*
X128940Y118509D03*
Y163391D03*
X130909Y118509D03*
Y163391D03*
X132877Y118509D03*
Y163391D03*
D02*
D132*
X95673Y126186D03*
Y128155D03*
Y130123D03*
Y132092D03*
Y134060D03*
Y136029D03*
Y137997D03*
Y139966D03*
Y141934D03*
Y143903D03*
Y145871D03*
Y147840D03*
Y149808D03*
Y151777D03*
Y153745D03*
Y155714D03*
X140554Y126186D03*
Y128155D03*
Y130123D03*
Y132092D03*
Y134060D03*
Y136029D03*
Y137997D03*
Y139966D03*
Y141934D03*
Y143903D03*
Y145871D03*
Y147840D03*
Y149808D03*
Y151777D03*
Y153745D03*
Y155714D03*
D02*
D133*
X71350Y131350D03*
X84750D03*
X203950Y135150D03*
Y148550D03*
D02*
D134*
X168326Y61504D03*
Y93196D03*
X171476Y61504D03*
Y93196D03*
X174626Y61504D03*
Y93196D03*
X177775Y61504D03*
Y93196D03*
X180925Y61504D03*
Y93196D03*
X184074Y61504D03*
Y93196D03*
X187224Y61504D03*
Y93196D03*
X190374Y61504D03*
Y93196D03*
D02*
D135*
X163504Y66326D03*
Y69476D03*
Y72626D03*
Y75775D03*
Y78925D03*
Y82074D03*
Y85224D03*
Y88374D03*
X195196Y66326D03*
Y69476D03*
Y72626D03*
Y75775D03*
Y78925D03*
Y82074D03*
Y85224D03*
Y88373D03*
D02*
D136*
X157738Y108393D03*
X157739Y102093D03*
X166438Y102094D03*
Y108395D03*
D02*
D137*
X222450Y116550D03*
Y132950D03*
X230950Y116550D03*
Y132950D03*
D02*
D138*
X96281Y30781D03*
Y32781D03*
Y34781D03*
Y36781D03*
Y38781D03*
X106181Y30781D03*
Y32781D03*
Y34781D03*
Y36781D03*
Y38781D03*
D02*
D139*
X99181Y29781D03*
Y39781D03*
X101181Y29781D03*
Y39781D03*
X103181Y29781D03*
Y39781D03*
D02*
D140*
X185050Y134599D03*
Y142099D03*
X194650Y134599D03*
Y138349D03*
Y142099D03*
D02*
D141*
X75750Y181700D03*
Y188200D03*
X78950Y181700D03*
Y188200D03*
X82150Y181700D03*
Y188200D03*
X85350Y181700D03*
Y188200D03*
X94950Y181600D03*
Y188100D03*
X98150Y181600D03*
Y188100D03*
X101350Y181600D03*
Y188100D03*
X104550Y181600D03*
Y188100D03*
X114150Y181700D03*
Y188200D03*
X117350Y181700D03*
Y188200D03*
X120550Y181700D03*
Y188200D03*
X123750Y181700D03*
Y188200D03*
X133350Y181600D03*
Y188100D03*
X136550Y181600D03*
Y188100D03*
X139750Y181600D03*
Y188100D03*
X142950Y181600D03*
Y188100D03*
X152750Y181600D03*
Y188100D03*
X155950Y181600D03*
Y188100D03*
X159150Y181600D03*
Y188100D03*
X162350Y181600D03*
Y188100D03*
D02*
D142*
X121950Y70600D03*
Y73100D03*
Y75600D03*
Y78100D03*
Y80600D03*
Y83100D03*
Y85600D03*
Y88100D03*
Y90600D03*
Y93100D03*
Y95600D03*
Y98100D03*
X142950Y70600D03*
Y73100D03*
Y75600D03*
Y78100D03*
Y80600D03*
Y83100D03*
Y85600D03*
Y88100D03*
Y90600D03*
Y93100D03*
Y95600D03*
Y98100D03*
X0Y0D02*
M02*
